<mxfile host="app.diagrams.net" agent="Mozilla/5.0 (Windows NT 10.0; Win64; x64) AppleWebKit/537.36 (KHTML, like Gecko) Chrome/134.0.0.0 Safari/537.36" version="26.1.1">
  <diagram name="PÃ¡gina-1" id="edalp-fS84Do4HNPHVvj">
    <mxGraphModel dx="922" dy="448" grid="1" gridSize="10" guides="1" tooltips="1" connect="1" arrows="1" fold="1" page="1" pageScale="1" pageWidth="827" pageHeight="1169" math="0" shadow="0">
      <root>
        <mxCell id="0" />
        <mxCell id="1" parent="0" />
        <mxCell id="nGa4pKBGpaBBOfSN9Iji-1" value="" style="shape=image;verticalLabelPosition=bottom;labelBackgroundColor=default;verticalAlign=top;aspect=fixed;imageAspect=0;image=data:image/png,iVBORw0KGgoAAAANSUhEUgAAArcAAAD3CAYAAAAHWnwyAAAAAXNSR0IArs4c6QAAAARnQU1BAACxjwv8YQUAAAAJcEhZcwAADsMAAA7DAcdvqGQAAOo/SURBVHhe7J0JQFTV/se/A7ODMGAgirIquKIk4pakpklJrlmGuDy1/mpmWrlVKuaamWWlKS5kmrlRai69JDV8KYYFsggaJZCimKLGItvM739m5rIKc4dFMzuf98a42znnt57fnblnRkIMcDgcDofD4XA4DwEWwn85HA6Hw+FwOJx/PLy45XA4HA6Hw+E8NPDilsPhcDgcDofz0FD9M7fa3/H1iv2wHj8N/ZtUqX9NHTNBSeIXWLgpBjnVPuFrgSZ9X8XcQa7CdkNTgvitCxD+cyFaDp+Hl3vZCvsblqKfwzFv21no2r6A917sKuzlcDgcDofD4dwv7i5uddmIWhCEwSuK8XpsNN5uaykcYJg6JkLBvrFwGfY5/tQJOyohReuZJ5C8opuw3dAUIGJUMzy3PQ+Pf/Q7jr7iLOxvWPK3D4djyFcoGbgZBd/8R9jL4XA4HA6Hw7lfVHrrtfCPo1j5Qg8MXPEz8qq8w2rqWG2wdB6CZV/uwq5dFV878OFoL+EMDofD4XA4HA6nbpQXt7o/sH7sUHx4dQDWhL8ML6mwX4+pY7VEYuWBXsNGYMSIiq/hGNDB3tDP5xO6wa/bBHy8ayme7dgEKrkVnLv9H75ITMQXUx+Hm40cCjtvPDX/W1wxvAtcgIOv94Cf/2As2r4Jk3q5opFcgcZtgjDv4B/QGnqthpIMHJg/BB2bqiGTWcO50zDMP5COEuEwdNdwfPnz8HOxhdzCAlLVI2j1+EvYHJ8nnFCCtL1z8FTrxlDI1WjmF4JPzuaiat1fmLoXC0Z2g7udEjK5LVy6PIeFhyr0kxePzZP6wttBDamFFKrGrRAwMQyxOcJxDofD4XA4HI756B9LMJJHacm/Uw77q/inudRe5UeLkkqMh0weM487e8eQgwXIsskTNGPlKlq1qsJr9XY6fUNLVJJKK3rKCBI5Kaybkd+gZ6mvlzVZQEJKa2uycX2Mhgzyo6YyCcHSnaYeLWAt59HngxXsGgWprRqRa4/BNKSXO1lJQJJGPWl5fLG+d9oTbMfakVOfjy4Ztk+95UtqiYRkTp0paEgAuaslJFF1ojdP5rHjWrq+O5iaWhqPDw5+gZ7xdSQpO1/95Fq6zIZa+MtC8mPXQKImt57lfepVqgjazNpgrVz9iv7jLiOJREZNOj1FQ5/2JSc2donci176Jov1UkjRc9uTTCIlh04DaeSoZ6l3y0Zkwc73evUYk4zD4XA4HA6HUxsqFLflmCpg61vc6ou/u14yob3S4hYy6vT2L6QvXe8cnEDNLFmhquxFK3/V95lFYYEqkrBC9YlPMtm2UNzCgpo8u9VQeJL2Cn0xwokVs1JqNeMEKyGrFLc5ETTKwYIkss40P1bfi5Yywp4mjYUFOYZ8xYp4LV09vYs+ff9d+uIXfYlZQtnHplNbGUjq9Rr9r7CQjr/iQZaGPrdRptDntmebsD5Ki9tiSnjHj+QSC7J78mM6X8h2sZH8+skAsrOQkLxzKJ0tvkWbg5QksXCgJxcdofM3S6gk4zta8+6HtGF/PN3SX8LhcDgcDofDMRvzv+6ggbBw7INpy1dgxYoKr+Wvop+TRDiDYWELH782UOj/tG8MW3bI0tkXXVz0C9hs8MgjaujPLi4q1J9tRCJH58CBaKaXyMIJTwd2hlxSgoxz51D1E/6SX+OQeEsHiZUN7pzZjvDwLfjuugp2FjrcjP8F50ss0MT/KTze0hJnVg5Fl1aOcOq7GueKWeVaXIgiuo2UC5ehlcjw6ICn0VToM/BJX8iMXTBu49SpRBSzPV2ffQFecv0+OVqOHI5u7KTixFM4ddMaPQf0ggZ/4rt5/dHa8RF4DV+N2MIm6PJYO9yb73TgcDgcDofDeXi5/8WtxhfPzZiJmTMrvF4LQTf7CkORKKBQCMWuhYVxkAoVlIYd+l3VDZsgkZQXyFKZ1FAAk06Lkirf0KArLGAFKjt2Jwl7P16N1atX4+OdqbBp1xEdmltBx65JXj0YPYfOxEffXIC07SBMfX2I8VljiQUkOh07R98A+3+FL5uQy2VsDMKGrgQlrGNio5crDJWtEbkcMjZ8Iv1xCbym7MTRrfMxrr8PmspzcDHmIDbOD8ZjTy7Gz0XCNRwOh8PhcDgcs7jvxW2dqVC4VgsrFuNP/ii8S1uIuLhkFJMlHN09oKkipdTNEy5y1p6qO9468gs7Nw6nP5uN51/4D6a8MhQdLFOxb8cJ3IQjXvgsDqf2hePd51pDf4keiaUGHu4OsEQJUmJ/Qb5hbz5iYs6hpLTWtdCgTevmsKQixEVF4baw+/aJ/yGOVdZSVx901FzB/778EpEXm2L01lhcvpGJxENz0cMayI3/HlGZ1X5vGofD4XA4HA6nBhqmuC05j8Nh67HnTLawo2a06VsQ4tMarVtXfvlM+FI4o65ocenzlzBo8iIsm/UcJnz6K7QyTwwP7mV4vKEiFo6DMCrwEUhuH8TsoS/hnfcWYGzIi3hr7lvYFFcMqaQRbG1kkNB1fP/JfCx/lxW+4z4xPpZwJx95OgV6BY+Ap0yH9PBJeH7mu1g2YxgmbLoIXVkNrkCP8f9BZysd/tgyHk9PDMW7C1/EwAmf4Q+yR+9X/g/d2cBS98zH7HmvIGTEFCz6dAf2H45GegFg2bQt2jv+c+49OBwOh8PhcB4IjI/eVqbWC8pyPqNBChl1Do0XdtyNyQVl7CXvt7Z8QZmlM714WL/Qi6jw9BxqJwVJ282h04ZFWXdo7xgHw+KwgFUX2XbpgjIZ+Y/8D/lqLIjVlyRRuNDTK04Ki7KqfluCfv3XYXq7bwtSCt9wILG0pfZjw+mcsVu6FbWAejlIjW1ZaqjT+Hk0rj0bm+xRCjV8A8MtOvXeQHJVStj1EpI27kKT548hLzbW0m9L0C8qS9s7m570bESWhn4kZGHtSUHvfE9X9YvQGNrLB2lOn+Zl49Cfo3J5khZ8f42EUzgcDofD4XA4ZlL9z+/+o8jH1iH2GLMPGPz5DUQEXcUvSdegbumLdk6lT+nWRAlu/n4W5y4VwMrNBz4ujSq9la3LScPZs5ega94Bvm621b7NXZh1DrGpd+Dk4wu3RjW806rLwR9JSUjPUaJ5uw5ws636y24luHUxAUkZf0GicUXbdm7Q1OO7hDkcDofD4XD+rTxkxW029o5WC/s5HA6Hw+FwOP82HoqHOiUWlrC0tIRF2fOuHA6Hw+FwOJx/Iw/BO7ccDofD4XA4HI4Rvhyfw+FwOBwOh/PQwItbDofD4XA4HM5DAy9uORwOh8PhcDgPDby45XA4HA6Hw+E8NPDilsPhcDgcDofz0MCLWw6Hw+FwOBzOQwMvbjkcDofD4XA4Dw28uOVwOBwOh8PhPDTw4pbD4XA4HA6H89DAi1sOh8PhcDgczkMDL245HA6Hw+FwOA8NvLjlcDgcDofD4Tw08OKWw+FwOBwOh/PQwItbDofD4XA4HM5DAy9uORwOh8PhcDgPDby45XA4HA6Hw+E8NPDilsPhcDgcDofz0MCLWw6Hw+FwOBzOQ8N9K261v32FRa9Nx/Tp+tcMzHjtDcyetwSf7D6NzELhpAcSLS7uW4qZq48J2/88bp9Yg5nv7BG27gHai9i3dCZWH7sh7HiYycep9TMxb3uSsM2579w+gTUz38GeC1phx70l98dPMXPBDmHrn0+pPMklwo5/MxV9qZJficX5vZ0XtBkHsTBkAAIe64vxG5NRH1Pln1p/X+2tvbgPS2euxrEbOmHPA0r+KayfOQ/bk+qimHswDxRmICH5Bu6L1u7xnG3wuXnbhS1TVNZjxVrF/Daq574VtyV/HMdnn2zB979ex40b13H9WiZ+++UQPnzxMbTt+n/YlXZ/Jqrao0Vm1Bas2X1G2P6noUNuXATWhN/D4lybiagta7D7zC1hx8NMETJ+OozvzmYJ25z7jS43DhFrwnHs0v2ZrQvTT+PwkXhh65+ODnnxX+GTDZG4yIvbSr5U2a/E4vxezgv5ODBvPJb8T4oeQ4egfwenek3UdxL3Ys19tLc2Mwpb1uzGmVsk7HlAKcrAT4e/w9msutQeDTwPsGLz0yF+GLM94z4Vt/d2zi7K+AmHvzsrbJmioh4r1yrmt1E99/exBEkTBL61GVu3bsXWbdux5+CPSPrlcwzK/Qz/N3EtUh/U+pbDKUOD5zcl4vS7fYVtzsNO4+DPkHhyqbDF+XfwN8a5LgeZmTlo+tQMLHx9Gl7oasefH7wXaJ7HpsTTeLevQthRGxrYPygX1/7MvT+F7X1A8/wmJJ5+V9gyRc16NL+N6vnbY0bh8QI+WDwEsqiN+CzOeGupyzqOFcH+aGEjh1TpgNYDZuDL5ALDMbMoycChRc/D31UDhUwFh3bP4O0DGexem6G7hh/eH4vHvR1hJbNk7TeGV9+XsS259NmIfCRunYYnvOyhlNvCs99cHLlW8Q5Uh2s/vI+xj3vD0UoGS6kSjb364uVtyTD36QrT8t3G16/0QsjycIQOaYdHlHJYNe+OyV8mI3HbZPRybQS53A5eA5cg6qYxFG5//Qp6vbAMmxYMhJedAgqNO3pNDMOZ24bDd2G6fzPky0/E1mlPwMteCbmtJ/rNPYJKKiq6iP3zh8K3mTVkUhUc2wRixvZzTLNmcvs0PhnbE60crJistnDxG4HFkVfLAr++/pGf+Dmm9m0FO6UCmpZPYs7Wj/BSrwn4/A/WA/OPnZN6YtC7MeyeUqAkHh8M64kJn//BNvT26YH+oVHGY2xUWcdXINi/BWzkUigdWmPAjC9ROpzsPVPQK3gu5g1vA3sre/jO0t+Vmr7GHEoyDmHR8/5w1SggUzmg3TNv40CGcHdoUv+Cf638AstHdIKTWgaFvTcC5+xH6eXi9itBxqFFeN7fFRqFDCqHdnjm7QNl15u0T/YeTOkVjLnzhqONvRXsfWfhWH4+DrzWA11DNuC3utzg6rJwfEUw/FvYQM781aH1AMxg8VKmTuavn0/ta/RX6+boPnENVk56DCM+SjQeF8kJehv2CFxk+FtP0cX9mD/UF82sZZCqHNEmcAa2nzPbu6tQf3sY4j9kOcJDh6DdI0xGKybjZOZPidswuZcrGsnlsPMaiCVRN4UrGJSNHxcHwdtODrmNGx5j+SI2RzhWrY3q6rN5OPp2P/QYvwUZFWbuotPLENRrMnZmmZ7Oddd+wPtjH4e3oxVklqzfxl7o+/I2lKZr8dxX13FXjXOxeaEIF/fPx1DfZrCWSaFybIPAGdtRa7coOYtVzz6NFTFFyPp6Knp0fwVfM1lEc56pOU8P3UT0u8+iYxMV5Ap7ePd/A1+VfloqOieaJj9xK6Y94QV7NlfZevbD3CPXUGnGrHO+Fo8NMf8wmatuf41XevRHaBTL9Pq/e4VgeXgohrR7hNnYCs27T2bjTMS2yb3g2ojFiZ0XBi6JgnHard08YIzRlfhi+Qh0clJDprdB4Bzs1w9El4ltk8ZgQ0ohUsND0HPsZuhN06B5pp5zdm1zjP78Hv1DDX/rqXm+qqrHcqq2UWt90H2i4Ngr5CH3pjd+LBT2lKO9upb6KxT05KdXiYoTaEWAhuw6v0RrD0VT7MmvaMlgd1K3nESHbgoXmKSQYhf5k7WtL01cd4RizhylsPEdyEozgNb8XkLXdwWTk7IVjfzoW4pJSKDo/e/RUDcZaYZupRvs6tyjr5KX4hF67PXP6fip47Rtdm9ykkpI1nOFsfnruyjYSUmtRn5E38YkUEL0fnpvqBvJNENpq74BMUTlu05hgQqSqVxpQGgEnYyNorUjXElm05hcurxI6yN/ouiIWdRDo6Tuy1MMTV4PCySFXEmPdJpAnx45ST9sn0t9nGTk8p+9TCYtXfqoD6ncphjOFe1fVL5cOvqqFykeeYxe//w4nTq+jWb3diKpREY9V6Sy43l0YnYHUtt2ogkfH6ST0ZG0eUZPcpC70fi919hoxCimn95k9mo9lsKOxlLiL9/S+0NdSN58Ih3K1R+up3/kHqPp3gqy7zaNwo+domOfzaCezlaklPekFaklzBkv0Ud9VOQ25XsqEC6hwv/Ra14qQT69fZTkOHaf4VBxwgoK0NhR55fW0qHoWDr51RIa7K6mlpMO0U0m7dW1/UhuoaaOL22lEyd2066oayLXmEFhLC3ytyZb34m07kgMnTkaRuM7WJFmwBr6vURM/8bxK63d6Ym5W+l4TDTtXxxIzWRNady+HNa4uP0KYxeRv7Ut+U5cR0diztDRsPHUwUpDA9b8Lmoffaz3k1uQuuNLtPXECdq9K4quaQvofx9OpAkL9tIlcQdhJvqI+qjcaMr3egsVU8KKANLYdaaX1h6i6NiT9NWSweSubkmTDA6RQ5GvCP665RhFR+2k+YEtmE2k1GZWtKE90znBaENl0wmGcynvBM3uoCZbFmsfHzxJ0ZGbaUZPB5K7jae918wY/F3U3x6G+JepyHVAKEWcjKWotSPIVWZDjV260IvrI+mn6Aia1UNDyu7L2dmCT0osyc5vCm2IPEVR+nzRREZuEw9Qtv6MamyUebbuPpu983l6RNWD3k1h8WWggI694knWfT5k/irsqpbrtCvYiZStRtJH38ZQQgLTzXtDyU2moaFCsjWd+8Tis7IvVfarynEuNi/knZhNHdS21GnCx3TwZDRFbmZ5xUFObuP3Mv82nGIe2qt0ascHNKadnBz6zaZPNx2m5FyxnCcy5+l1xOzdpPcs2vZDLJ05vJIGt5BRkzF7DV2KzYkmyT1Kr3op6JHHXqfPj5+i49tmU28nKUlkQj6tV74Wiw1x/zCZq66HUaDSkcbuu2P8WyEjlesACo04SbFRa2mEq4xsGrtQlxfXU+RP0RQxqwdplN1pucGPazMP6JsPJKXSmtyfmEtbj8cwHS+mwGYyajpOf30Oxe9dbNB5i8ELKGxvHN1s0DxT/zm7djlGkNdxrOFv0/NVRT1WrlUqtVEHfTwQxS3l7aARNjLqsjiJCiInk6uyGy0rS4SM69touL0NDQq/JuwwQeFxmuapIJ+3zrCQF8j9nhaPmkCfnM6nrNPbaXX4DxUSTiFFTW9Fyi6L6VxJDkWEOJAq4H3Sx6UB7WVa/5QNyYUkps06TdtXh9MPFRRaGDWdWim70OJzJjO1AXH59MZWGPorHUPBkUnkInOlSUdYEOrRZtInTyip6YQDhk2D4ym60tKkskFT5sYg0tg8Q5uyiis5jFj/ovLlRFCIg4oC3k+lst4ur6enbOTGQMnZTS80VlH3Zcllx/Xj3TxIQ+q+H1N69X5YgTsUEWxPjXotpl9uGU8uSfuO1q/ZR4ksn9XXP3K/Gk0OLEGVX6+l9E8HUKM6FbcFFDnZlZTdllHl4Qwne5tBFM50qC8kFMp+tOZyqeBi1wg7TFB4fBp5KnzorTPlsZT7/WIaNeETOn1dTP+CfwWsooulQzLEjJLF3zkz7FdIx6d5ksLnLSrvPpe+XzyKJnxyWty/9IWTQkn91lw2JM26UKkIKYikya5K6rYspXy8zEbbhtuTzaBwunbzSxph34j6r0kv7+/GTnrBUSYUt1qRnFC5uM3Z/QI1VjH/SS7vTZu5mQZp1NT34wp9mE197cFa0Md/qf/qKThCk1xk5DrpCIsmPSwffPKEIEOpTz5G750vbVFLl9c/RTbsBvZzVhPcbaN6+uxfe2lsUwV1Do1ntyKMvO9okqstBa67ZFpf2iw6vX01hf9gnGANFEbR9FZG3eiHYjr35YuO27ziVmxeyKHdLzQmVfdlVO4WbBybB5FG3Zc+Fk96lTHkdxW5Tz1qyEGiOc/knFcg+Aezd9ngC+nkG96k9FvE/hbzf2FXDeREhJCDKoDeL1eM0ZcEf6xfvhaJDVH/MJ2rmGKqFLfGOcw40gI6MsmFZK6TqHza/YSeUDalCQf0O2ozD+ib19sggFaVC2IYm17HBorjKbSzinze/sUQIw2aZxpgzq5djjGeX1qYmpyvCirqsebiti76eDAe5SnOx50iCdRqJTLjEnClJAXrhnVE+/btja/HQ3Ei/w4uJKWWf1RcA7rsJJy7bItH/dtBLuyDVV+8tW0jXvZXwdH/eYz2u42IZbMxZcww9PNri8FrUqHV6aArTkNicg6cff3QwlK41sIRPbq1grRs0x/Pj/bD7YhlmD1lDIb180PbwWuQqmXX6yq+z18dWjPlk8DG0wvOwhgkamuopE3h2kJm3GGhhlolgbZE+GyGYekegN4tywYNx27+aFmUgsQLFVcRiPdfIiJfSVoiknOc4evXAuUq6oFurYwaKvk9ASl5LdC9l0fZcb0OA3q2hfZ8PM4VC/tqRIk+Y0bD5ed58GvWHB37j8acr3PgP2Ig2lmbq7+a0CI9KQV/OT2Krm7lunIOeAytSw1cG7SZiEu4gpKUdRjWURgLez0eegL5dy4gKVWwpp0rXO2FUDPzmprRITvpHC7bPgr/dmUezlz8LWzb+DIevWyO/iXQeLSEU2n0W2igaSRBSVGRuP0Ks5F07jJsH/VHefdW6PvWNmx8ubN59pHYwdXVvkGeidJmxiHhSglS1g1Dx9L+2j+O0BMsp1xIQsq5eCTnu6KLf7Py/jTd0a2dEEv6WDGVEyqFdAl+T0hBXovu6OVRph2mngD0bKvF+fhzEHXvaqmHPYQOJTae8CpPGLBWSdHUtQWMUlqw3KqCRFueCyxdu6FnhRhw7NoFngXJSLgg+F9FG9XXZxv1x8ggRyTs+RKxbAh5x3fiwF+98fyQpuU2qQ4mp//zo+F3OwLLZk/BmGH94Nd2MNakalku0pV99F1j7kvOqGesCZSIzAslvyMhJQ8tuvdCuVuwcQT0RFvtecSLJz0TiOe8ApNznvF5Uommgn+wsdnYWENSqP/MvDb+X5USpCUmI8fZF37lioFjj24wTgf1zdd6ao4NUf/QmcpV/sJ2BSQ28PRyFuKM1SPWKkibuqJ82lVDJdGiwrRrxNx5QOOBluWCQKNpBElJdRpo2DzTUHN2bXOMEdPzleCeItRNHyZzy/2iKDERF7SPoKW3EwoLmbFtOiN45mzMnl36mo+VYeFY9pxnWZFZI8UlLKSksJRJhB0V0SFz93j4+T2HdyLikK3wQMC4hVgwwkVQBLuWOa6FtGIvEiiVCvavEV3mboz388Nz70QgLlsBj4BxWLhgBFzM1KR58kkgk5VOvqVIICm3611IlCqoKo7BkumApX8W45UQ699CTD4W2VqmrcoqUkKpEDRUxIKfSSGrZCgJGw7bwQajFav/GXYDPsSp2MNY90YQ3HNPYeOsZ+HvOwKbf9fW3z+YTiRsLJYV3ENiSFrChkDlYeqTfHUDL4RxOMGYWTYW9pq/EmHhy/Ccp2BNS0tIy9o37xpTFOuzq9QS1bq4Wfpn22xMlShtS/T6YkNyl1rKyi6piFn2YY5sWa6Q+lFYyCZIG3QOnlmhv9mYvzIM4cueg6dBTH0c1PRsp1hOqEyRPnlLZZX9jMljVI+2it+YS33sIexh+eKujGEqYcjkkFUUkLWn3yxz80o2qq/PqtEneAhaXIjAjuhsRO46jML+IzGoSXUaroAuE7vH+8HvuXcQEZcNhUcAxi1cgBFVkm3Nua/+sWZEbF4ogtEtKrcnYeOQ6nOHOUnPBKIxZXLOM2IcS3XUzv+rUmJUTKW2JUolSqeD+udrE7Eh6h+mc9VdSFgM3R1E5QVfjZg/D1Ruq+ZRNWieaaA5u9Y5RsDkfGUmddGHOf57b9H9icObInCxyVMYGqBGU3cXqPPyYds9GKNHjza+Rg2Ar6c3fFqKv9tj0dgNLjbZSD1fvgAJJcnYOHkUFuz/GbvX7sT1vqsRc+a/2LFhJeZPDUKT4r/0KQg6qStauStw5VwSsssuLsT5C+nM+Hp0uLR7LXZe74vVMWfw3x0bsHL+VAQ1KcZf7Pwa588yLOstX01oM1KQkitsMHLZDcPvlh7wFu7OjIj1r2GJzrR8UtdWcFdcwbmk7HL9Fp7HhXSjhqSu7nCRXkJi4s3y48hHfMKvQHM3uFeNjqrobiBmx2rsufooJiwMw95TqbgcvwqP5x7CtoN/1lN/lmjh3RLqK+eQdL18dAUp58HqZgGWgCwJRYV3ygOm6CquVji/DMumcHdRIy/fFt2DhbGw16gBvvD09kHL0ndrK1KXayphgcZuLrDJTsX5q+VjKkneiMmjFuBbpWu99C9qP0VjuLnYIDv1PMq7L0HyxskYteDwPfPvmrBsysarzkO+bXcEl/Y3ehQG+HrC26clHL07oI0qHWdiKuSDv2IQkyzc6+sumc4JxrMEpHBl8kkvJSJRWMxpID8eRvW435X860u946kGtJcv4NcK+SInIQFpUnd4VVfw1dtnAUWPFzDMIx0Ht63Etm+Bp14YCHvhWE3oLu3G2p3X0Xd1DM78dwc2rJyPqUFNUFwl2daY+1q3qPe4DYjNC+y4u4sUl1i/ld0iAb+iOdzqaiQD4nOG1NScd+CKsKMGauX/VWHx0ModCn0+LVcMmw4uwDgd3Lv5To+of1iYylUHhO0GoAHiQ19Mltd+DZtn7vmcbRLT89WBKxXkq5G66aOh5xoRinHzjxQkJSWxVzx+OrYbq14KwoRtJXhm0VsItAZsA0Mw1OEMPnh5Kb6/XMgy15+IXjUOT/YegsUn8oR2TKDug5FDnBD98VxsScphPp6DpC2hWPLZz8ixbczuTiQo+jMNabeYkrQ38POmaVj4zS1m7EIUwA5PjxsOu6PL8erms7itLUD6N28jdNeVMqPr784lRX8iLe0W26fFjZ83YdrCb3BLf/dmxgLQestXA3TzAJbO3o0L+Vrknd+JNxbugyRwNIZUeXdErH9R+eyexrjhdji6/FVsPnsb2oJ0fPN2KHaVOmnjIIQMVCNy6VSExWSzVJKP376ajQW789Bt5LPwFrvRs5Dgt71LMHXaIhzK0C95LcFfl//AjSJ7uLjY1lt/jQLHYoTjCbz36gbE3tKiMOMQQkN3IrO0uLXQwNXVDteP7cL+NNZ+YQa+XbQKh29Xd29oi8CQoXA48wFeXvo9jMOJxqpxT6L3kMWofjh1uaYy6j4jMcQpGh/P3YKkHDYB5SRhS+gSfPZzDmw9BtVP/6L2U6PPyCFwiv4Yc7ckIYdNIjlJWxC65DP8nFNX+5Tg/OEwrN9zpkLxYCa2gQgZ6oAzH7yMpd9fZl6qxZ/RqzDuyd4YsvgE8jRBmBTSDCcWhmDWZ0dx8oddeGf0a9iZRfo3ZRj6dyxM5YTKNA4KwUB1JJZODUNMNpsc8n/DV7MXYHdeN4x81ptN5wU4dyAMYV/HoYYvK6kd9Y2nGqBbB7Hszb1IK9Ah99w2vLbwAGRPj8agR6qbEurvs5B3wQvPtsbvm1fiG/nTGNm/kXDABPp3aiRF+DMtDUbT/IxN0xbCaJpyy9Sc++zqP24DYvNCYwSFDIQ6cimmhsXA6BZfYfaC3cjrNhLPGoxUd78QjSmTc56d0EpN1M7/q2L39DgMtzuK5a9uxtnbWhSkf4O3Q3ehdDq4V/OdAVH/MJ2rGo4GiA+JHAo5IffWLRbjDZxn7vWcLYLJ+crOvBJUXB8sws4dQFjY14grVYjw7O09x7CgTP9ZEetS/5JILElu40TevYJpwde/Cg8l69HS9ailFORhRRYWclIqpCRRNqd+8yMpy8ynqLXZJ2jZQDdSWcpJrZKRhcqNBr77o2H1+o3IudTVXkoWciuyVsrJvuMoWjonkDSawRSu70B7nY4v7E/NlRYkk8tI1rgbjR3antSlC8puRNLcrvYkZWOzslaS3L4jjVo6hwI1GhocnlXtg82VEZNP/4C1ippOOFimk8If3yBvVXda/mvpw9S3aHOQSngIW3jw2q4rPR3QlOQyOcksFOTcew4dzNQ3WOXbEkT6N0c+7fXjtLB/c1JayFh/MmrcbSwNba8WFlyx41cjacGTLqRiNlaqFSRVOlPA9Ai6aFhNIk5x6hc0wUdDlpZKamSjIpnMgfyn7qE0g/j194+bJ1dQkJuSLJiu5LLG1CWoFzkryx+WL0xcR8M8VGQhVZJaqSa3oHk05TGrahaUMZi/RC0NIg8rC+ZTSlJIJaRs3o/mR+p1ZVy8o2r+En1btjqNYfIac9BS9ollNNBNRZZyNalkFsy+A+ndH43Lj03r/27/ouI4mu+rIt/5cYZNUftps+nEsoHkpmIxrGb2sVCR28B3ydi9iH/pFyupmtNLlRSSQ58NUpCscyjFm+EjlRf+sO3rUbQ0yIOsLCxIrmTjlSipeb/5FFnqEHkJ9Nmkx8lDw/qwdib/kGk0zEtBHd46o79aJCcUV1pQpj//auQCetJFRRLmn2omn9I5gKZHXDQulqJrtG4A66f7cioLV5PU3x76+Fex8R0sTxj0hreKui//tWyByK3NQaQyLM4w+qS61SAa26cpKZRKZj8ZOQW8Sd9eMeqrWhvV22eZWImLqItcSh5Tj1bI9ybQ3qDIuV3JXsrsamVNSrk9dRy1lOYEakgzONzgT6Zzn74N0+M2b0GZ/kTT8wJTGkUueJJcVBKyZDlDwXKHc8B0iigLmlr4RZUFZWyHaM6rec6rxj+Ypya+05lUHd5if5sxJ5qEje34Qurf3JhPZSyfdhs7lNqrS/NpffK1SGyY4R8mc1XVBWWqpjShPIjoxze8SVXRXrc2U5BKOL8a/zDlZ9XZIG6+L6l85wvbd+jYdC9SWCqoUYc3KKqwYfNMfefs2uUY4/ll33TANFDzfFVRjya+LYEdM60PppF1A0ghK6+TJPp/DFXug4b2NtLiE5GRq4BzOx942pc/jGweJcj+LQ5JmVo4tvaFt0P59bqcdJw9m44CTUt0bN+M3d/dTUFWMs6m5sGh3aPw0FS5u2B3xulnzyK9QIOWHdujWXUNiFFv+cq5seEptFjgjD2pH6L9+XhcUXigY1snKIXj1WKqf7PkK0BW8lmk5jmg3aMeqKoig/5T43AuC3Bq7YOWjWspny4Xl5MS8NstCzh4dUSbJlWkqa/+iq4hJfZX5Dq2R/vMd9Cx/2lMTPgBM40PabLjf+J87HncbNQKvm2bQOy5d+3tNMQnZiBX4Yx2Pp4wZzh1uaYSJdn4LS4JmVpHtPb1RgUXZ9RT/2ZcX5L9G+KSMqF1bA1fb4fyxSx6GtC/zUOL22nxSMzIhcK5HXw87Y3j0WUhMfoKbH06oYW14USg8Cimth6IxFfP4/h0F8OumnOCDlfWPAmPZe64c2mDsI/BdJ8adw5ZcEJrn5aoqB7dtfUY9iKw/uv/g9hjpeZTX3tWA4ux9Ng4XJZ5oJNP9XmwKvXxWd21zzCszXvwPhiLd7uZe6EOOelncTa9AJqWHdG+SjIyN/fVO9YETM4LjJLsVMQZjQSflo0rxUS9/UI0pmqe88QwZ040SUEWks+mIs+hHR710Nz9kfA9ywem/aMUk7mqAamXn7F5Ny32LP7QOcOnszts9Ups0Dxzj+dsMUzOV2ZiQh9MIVhvVAj+T68QQ4nL+Udz910hpzYU/u818lJV+JoTzsND8S/0dkcFuYd8Qal5bLvkOv206mlyUnaieWdK7/lNUUCnZrUlRZtZwrYYd+jkgqH04pcZhndsOHr0msilXxb1pMbdllLZt3Y1AP+c3Mf9gtOQcH+qyp2TC2joi19ShqAQs+p9zoONRGIBSwuJ8Awhp9bo9WdpwfX3MCLtiKnLX4PrsfHw0qhhbeWEHu+ko/fKjZjVuZrFUxUpPI5Xve0Q8P4l+Dw3TNgphhJd5+9B2MgW93tBwwNLScx8dLaxh/97BXhx2RS0reczfBX55+Q+7hechoT7U1WUXedjT9hItBAU8uA+lsDhcDgNRclNpJ37FVnFNnBr0xpNzPrcNR9XU87jssQZ7b0dRR9N4dSA9jbSz11EgVPbWn1UzuFwOHWFF7ccDofD4XA4nIcG/o42h8PhcDgcDuehgRe3HA6Hw+FwOJyHBl7ccjgcDofD4XAeGu5rcVuYkYDkG8KvYohw+8QazHxnj7BVAW069i97HTNXH8W1ik1pM3BwYQgGBDyGvuM3Iln/Mx9/K1pkHFyIkAEBeKzveKz5ci1mzttuPJT7Iz6duQA7/v5B3s3tE1gz8x3suVD2e7QmuI0Ta2binT0XhO17jzbjIBaGDEDAY30xfmMy6qPB/FPrMXPBjvvqK9qL+7B05mocMzMOTJOPU+tnYt72JGH7X4j2IvYtnYnVx24IO/4mCjOQkHxD+MWqB5Pa5N8Hn/ufe+pPITISklF3E+Tix09nYsGOuue93B8/NeS8B5IHJZaro6a6o17U1x8eMGpVO9QFLS7uW8pscEzYNs19K261Fz/FEL8x2J5hjiV1yI2LwJrwu4UoOLkas5Z9D3TsDMcKo88/MA/jl/wP0h5DMaR/Bzj93e9J5x/AvPFL8D9pDwwd0h/e+Wdw+LuzxmOF6Th9+Ajir90rJ6g7utw4RKwJx7FLZqRPXS7iItYg/NglYce9Jh8H5o3Hkv9J0WPoEPTv4FQvB76TuBdrNkTi4v0sbjOjsGXNbpy51RDrOIuQ8dNhfHc2S9j+F6LNRNSWNdh95paw42+ATcqfDvHDmO0ZD2xxW7v8+w/gvuee+sIm5k+HwG/MdtTZBLo8xH/1CTZEXqxzcVuYfhqHj8QLWw8YD0Is10BNdUfdaQB/eMCoVe1QJ7TIjNqCNbvPCNumuW8lIOVew5+59bWiFpeu2WHk+i+wuHfF34bWISczEzlNn8KMha9j2gtdYeZPFt8zdDmZyMxpiqdmLMTr015AvwmbkXj6XePBxsH4LPEklj7Ov1yoVuhykJmZg6ZPzcDC16fhha52//LnajR4flMiTr/bV9jm/C1QLq79mftAv2vbMPmXU3cIudf+xN9tgsbBnyHx5FJhi2MeNdUd9eHB8IeHmftSG+gyt2HSmA1IKUxFeEhPjN2cpt+LrOMrEOzfAjZyKZQOrTFgxpdILjBeUxVd1nGsCO6OPv9ZhMX/6Y2OA2bgS8PJJTi76lk8vSIGRVlfY2qP7njl69tA0UXsnz8Uvs2sIZOq4NgmEDO2n0O+obXb+PqVXghZ+QWWj+gEJ7UMCntvBM7Zj4yyN1OLcHH/fAz1bQZrmRQqxzYInLEd54wNmKTk7Co8+/QKxBRl4eupPdD9la+R8fUr6NE/1HhC9h5M6RGIRT8WGbdNjrUulCDj0CI87+8KjUIGlUM7PPP2gTLZjLr0RwsbOaRKB7Qu02UVdNewc1JPDHqX6VbYhZJ4fDCsJyZ8/oewowLs/B/eH4vHvR1hJbNkbTeGV9+XsS250HhcL3evYMydNxxt7K1g7zsLx8wVsuQsVj37NFbEFCHr66no0f0V6M0sKktJBg4teh7+rhooZCo4tHsGbx/IYOlKgG4i+t1n0bGJCnKFPbz7v4Gv0koVJSKPGeQnbsW0J7xgr5TD1rMf5h65xtJaOWbbolr0ftwD/UOjjFvMx3qFrMQXy0egk5MaMr08gXOwv8yp85H4+VT09bKHUm6N5t0nYs3KSXhsxEfGw9XaRyxOb+P0J2PRs5UDrORMRhc/jFgciaulSbuhfTs/EVunPQEveyXktp7oN/cIrlV6E9z0eA06emEZNi0YCC87BRQad/SaGIYzzJeM6HDth/cx9nFvOFrJYClVorFXX7y8LRkGq1fVUacpeHPiGGxIKURqeAh6jt2MNK1IG7e/xiu9QrA8PBRD2j3CbGHFbDGZ2T0R2yb3gmsjOeR2Xhi4JAo3S/Woy8LxFcHwb2EDOWvPofUAzPgyGUaxTOez6vNv3fNbKSZ9V5Bx5RfLMaKTE9QyBey9AzFnf4XYE8OkzLVF8P1WdlAqNGj55Bxs/egl9JrwueGo7tpOTOo5CO+y/FJKSfwHGNZzAj7/w2iEuseqDpnbJmHMhhQUpoYjpOdYbE77E3um9ELw3HkY3sYeVva+mHWM3SSZ8hsByv4Ri4O8YcfizcbtMUwMi0WOcEx37Qe8P/ZxeDtaQWbJ/L+xF/q+vA3lKXgKegQuMm7UK7/l4ejb/dBj/JZK7zwWnV6GoF6TsTPLjKqtnrEsTkPZvLq6wwxqzH3m+gMLxnrlTzNyYchyhIcOQbtHmA2smqP7ZHY8cRsm93JFI+Zfdl4DsSTqZukFLKZfwLJNCzDQyw4KplP3XhMRVp48KyMSv2K+arDf1ml4wjBf2cKz31wcqeQgIjlM/z2395yceNq7eCi5yVrQ4AVhtDfuJhUnrKAAjR11fmktHYqOpZNfLaHB7mpqOekQ3SQtXfqoD6ncphivL06gFQEasuv8Eq09FE2xJ7+iJYPdSd1yEh26qaWrp3bQB2PakdyhH83+dBMdTs6mE7M7kNq2E034+CCdjI6kzTN6koPcjcbvvcZav05hgUpSWrvTE3O30vGYaNq/OJCayZrSuH05hi7zTsymDmpb6jThYzp4MpoiN8+gng5ychu/l66J/N6d9uop2vHBGGond6B+sz+lTYeT6XJYICkdxwrH11I/ZVOaYPjNyDyRsdaewthF5G9tS74T19GRmDN0NGw8dbDS0IA1v4voko3t0kfUR+VGU74v0G/QR31U5Dble2JbRgr/R695qajnitRKx/Vc3xVMTspWNPKjbykmIYGi979HQ91kpBm6lW6w4wa55Rak7vgSbT1xgnbvihLVZRnaq3Rqxwc0pp2cHPrNpk83HabkXNOysMFS7CJ/srb1pYnrjlDMmaMUNr4DWWkG0JrfSww/3amQWFKT3rNo2w+xdObwShrcQkZNxuw1dCkmjyi5R+lVLwU98tjr9PnxU3R822zq7SQliUz4qV8RW4hj9GPHsfuMW3ofU1qT+xNzaevxGDbexRTYTEZNxxmP50S+Ql6KR+ix17fQsego2jk/kFowe0iFn5atzj6ZZ03FKRPhpzeZb7WmsWFHKTbxF/r2/aHkIm9OEw/lsqMN7du5dPRVL1I88hi9/vlxOnV8G83u7URSiczojwzTecWoI4VcSY90mkCfHjlJP2yfS32cZOTyn71Gm17fRcFOSmo18iP6NiaBEqL303tD3UimGUpb2Ql36+hbOv7VYoNftBi8gML2xtFNkTbYIChQISOV6wAKjThJsVFraYSrjGwau1CXF9dT5E/RFDGrB2mU3Wl5iv63aospYUUAaew600trD1F07En6aslgcle3pEkGRxHJZ9Xk3/rkNwNivquXUakka/cnaO7W4xTDdLA4sBnJmo4jIcWKICJzldwjRu6x6eStsKdu08Lp2Klj9BnzQ2crJcl7rjAcr5T3BCr9LHc9YzUnfi8t1vtAi8G0IGwvxd24Smv7yclC3ZFe2nqCTuzeRVEpO0z7DcuB+msklnbkN2UDRZ6Kou1z+1ATmRtNPJDNTrhOu4KdSNlqJH30bQwlJDA/eE9vdw0NNTZAV9f2I2XTCfoh1Tu/Ze98nh5R9aB3DT6qp4COveJJ1n0+JJZeRah/LIvx99rcdO67bY4/XMupV/40KxfKVOQ6IJQiTsZS1NoR5CqzocYuXejF9ZH0U3QEzeqhIWX35cYGDXlLTspH2Hg+PUInf9hOc/s4kczlP7RXnxsr6VM8Z5n2Vf30+aowX31Ox08dp22ze5OTVEIywX5iOez+FLeM4vhQ6qzyobd/0f+eewFFTnYlZbdlVBYXjOvbhpO9zSAKZyOrWNwWRE4mV2U3Wlb5ZBpub0ODwq+xDS1lfvIEqdyn0lG9XnN20wuNVdR9WTKVXaHNpM2DNKTu+zGla/WTgYLkAavoYqmHFB6naZ5K6rL4HNvIod0vNCZV92WUXN4AZW4eRBp1X/o4XTz7azM/oSdU7jTVMCCjI1Vb3IqOVdhnNoV0fJonKXzeojOFwi6WSL5fPIomfHJaVJd1L261lHV6O60O/6HC5FhIUdNbkbLLYjrHujPIrVBSvzWXRQOzWphePnlCRe5TjxrGI+oXBpsqyOetM2wkArnf0+JRE+iT0wXG4JY/Ru/pE5mBQjr5hjcp/Raxv8XlESMnIoQcVAH0fln7Wrq8/imykRuTp7hfi3F3cauQB9Cqcqc2+IJ+vMTS2Zcj7KlR/zUVfOoG7XzBkWQVi9tK9hGLU6I7EcFk36gXLf7llvGakjT6bv0a2peoL6oa2LdzIijEQUUB76eWtae9vJ6espELE6L4eA06UnSlpUllLVDmxiDS2DxDm7K0pM06TdtXh9MPFSq8wqjp1ErZhRYzo1frw8XxFNpZRT5v/8JSOmtRpI3SSUI/ZuMoCujIJBeSuU6iI/r7XYYhf+hzxAG2oyCSJrsqqduylHI9MttvG25PNoPC6ZrBD0zls6r5t/75TdR3BRkDVl0s01Ph8WnkWaoDMcRkrlVxm0tfjXZgk3QFv9Cm06cDGpld6NQ/VospPrQzqXzeJoMJDIWqgpT91tBlQUGiflN6zWPv0fkyOS7T+qdsWEH6Od3QZtHp7asp/IcKhU9hFE1vZfQD5r0Vitv65zf6ay+NbaqgzqHxBr+nvO9okqstBa67VN5/TTRALJvmb7a5aO4T94f65U8zc6EwFxkoOEKTXGTkOukIGdOQsa4qvRkyxrSCui5NKrdZ5kYK0tjQM5uyqLiiPkXjV8xXcygixIFUAe9T+fRp9HWj/cRz2N/zyKI2E3EJV1CSsg7DOrZH+/bG1+OhJ5B/5wKSUss/JjA8RByXgCslKVg3rGPZue0fD8WJ/Du4kJRa/pG5QMnvCUjJa4HuvTxQ9jPmFo4I6NkW2vPxOFes3yGBxqNl+cIzCw00jSQoKWKtlfyOhJQ8tOjeCx7lDcAxoCfaas8j3thAg2DeWGuBLhtJ5y7D9lF/tCv7pUsr9H1rGza+3LnWujQfph//5zHa7zYils3GlDHD0M+vLQavSYVWp4Ou9NMEiR1cXe0b4HkYcb8oyE7Cucu2eNS/HcpV0RdvbduIl/2NzztLNJ7wci7VvAVsbKwhKdR/cGKmPDVSgrTEZOQ4+8KvRXn7jj26oZVU/3ft/docJBoPtCx3amg0jSAp0fv0r4hPzodrF380K1O+Bt27tYNM2DJQ0T5mxKmyzxiMdvkZ8/yaoXnH/hg952vk+I/AwHbWDe7bJWmJSM5xhq9fi7L2LBx7oJtRoWbnFUv3APRuWcEm3fzRsigFiRdKWHv+eH60H25HLMPsKWMwrJ8f2g5eg1Qts3mp0UV82Lw2bODp5SzIIYHaWgVpU1e0EIxhoVZDJdGiRKsXKw4JV0qQsm4YOgoytW//OEJP5OPOhSQYxTKRz6pS7/xmpu9KNPBoWb7o00KjQSNJCYqKRIPHTJnNRJuOpJS/4PRoV7iVmd0ZAY+1huA5ItybWNXbzM7VFfaCgszyG+Yxrt16VpDDEV27eKIgOQEXShzh//xo+N2OwLLZUzBmWD/4tR2MNaladr2u0uNQBnvXK78xGvXHyCBHJOz5ErElQN7xnTjwV288P6RpjbFRSkPFco38zTavW+6r7A/1yp9m6k9iU2H+k6hhrZKiqWsLYU6wgFqtgkRbYYGYpTsCeresYLNu8G9ZhJTEC5UWOYrGr5ivlqQhMTkHzr5+KJ8+HdGjWyuj/czIYWI+eI8oRCHTrU3nYMycPRuzS1/zVyIsfBme86zsfoXGkxE8s8K5s+djZVg4lj3nebezFrFJge2VVToggaWU7WCK0xoCl21blmnFiET4L3NbvT2llRuAxFLKWmWBb2ygYTBrrLWh2DAhSi1l5eJUoNa6ZFQegj7xVTcoHTJ3j4ef33N4JyIO2QoPBIxbiAUjXCo7mcSSyVbdyGqPqCzFJSxFSWEpq7k/o02rw0x5TFCiZYawqNy+RKmEQhhOXWwhhoT5dGWvriw76Scu4e9qqWQfM+LUbgA+PBWLw+veQJB7Lk5tnIVn/X0xYvPv0Da0bzPH1jLt6y8vQ6KEslShZuYViVIFVUUjMh+wZF7OhgRd5m6M9/PDc+9EIC5bAY+AcVi4YARcKp4v4sPmtSGDrNJdBUPCdCP8WYnCQpaRbNA5eGa5TOw1f2UYwpc9B6NYpvJZVeqf38zyXb2ezB1SVcySuRaQhPmNZYX+2Q2FfuIWtoxUkZs5RGmquxexqh+DJdN56RjM8huGTC6rlIOkUv0WsdjOxO7xfvB77h1ExGVD4RGAcQsXYETVBgzUP78BavQJHoIWFyKwIzobkbsOo7D/SAxqYkYLDRTLJvk7bV6n3FfZH+pXG5iZC1kSujsNVZuFjDAbqSonT1ZrMC3qk2dFxOLXQsxX2dxtmD4rCi+BUqkQ9COew8z34/rCEncZlk3h7qJGXr4tugePxujRxteoAb7w9PZBy9JbFwOWaOruAnVePmy7B5edO3rUAPh6esOn5d3voEhd3eEivYTExJsVJvJ8xCf8CjR3g3tVa1ZF6srGJ8WlxMTyBR2M/PgE/IrmcBNtwHzqPdaqWDSGm4sNslPPly/qYY6SvHEyRi04XEtd6icnQlHhnfIUUHQVV69XcWQ9ukvYvXYnrvddjZgz/8WODSsxf2oQmhT/pXe1CrI1FOJ+IW3sBhebbKSev1ref0kyNk4ehQUHrgg7aqDe8kjh2sodiivnkJRdfnbh+QtIN9zi1t6v64W0FTq0USH9TEwFv/gLMTHJ7HaoBkTjFLgRswOr91zFoxMWImzvKaRejseqx3NxaNtBXG/RsL4tdW0Fd8UVnEvKLm+v8DwuGBVqxniNGtVmpCAl1/CngVwW579besC7lQUu7V6Lndf7YnXMGfx3xwasnD8VQU2K8RfrsGr+LkdSPiGxkdWtjZqxbMr0qM5Dvm13BAsyjR49CgN8PeHt07LsnR6TVMy/9c5v9953G0TmUixbwLulGlfOJaE8dRUg5Ty7ARO29FW4JRWh8E55xVB09apwfsPIW9EEd2Ou32hx+cKvKHffHCQkpEHq7gX3q7uxdud19F0dgzP/3YENK+djalATFFfneA2UrxU9XsAwj3Qc3LYS274FnnphIFhaEKWhYrlG/mabmzOvm/YH89qokfrqrya0GUipnDyR+LslPLyFd1QFxOJXw27kTPoqy1Gt3BUG+5VPn4U4fyGdVTMMM3JYHSWsPRK5AnLKxa1b+qHZIjBkKBzOfICXl36Py4VMZ39GY9W4J9F7yGKcyDNeU4ptYAiGOpzBBy8vxffGkxG9ahye7D0Ei6uerKdxEEIGqhG5dCrCYrKZMvLx21ezsWB3HrqNfBbeJm5MjDRGUMhAqCOXYmpYDLLZkPN/+wqzF+xGXreReFa8AfMxY6wF5w4gLOxrxNWwKLEy7G565BA4RX+MuVuSkMMcJSdpC0KXfIafc2xrp0sLDVxd7XD92C7sT2PnFmbg20WrcPh2dbeM+jtMCYr+TEPaLeZt2hv4edM0LPzmFruusIYVzgU4dyAMYV/HwSzRqiAqi7oPRg5xQvTHc7ElKYfFTA6StoRiyWc/I8fWTmilJuoiT2Xsnh6H4XZHsfzVzTh7W4uC9G/wduguXBGCsdZ+XS80CJoUgmYnFiJk1mc4evIH7HpnNF7bmQWqMcuKxakFJL/txZKp07DoUAZLPeze4a/L+ONGEexdXGDr0MC+bfc0xg23w9Hlr2Lz2dvQFqTjm7dDsatUoWbmFbp5AEtn78aFfC3yzu/EGwv3QRI4GkOaWBjeCZAU/Ym0tFtsQtHixs+bMG3hN7ilfyekJqNL5FDICbm3bhkSb53aMIVtIEKGOuDMBy9j6feXWSta/Bm9CuOe7I0hi0/AHE+pnH/rn9/uue82gMzlNELg2BFwPPEeXt0Qi1vaQmQcCkXozsyyQsdC4wpXu+s4tms/jKnuWyxadRilqa7+8kogV8hBubdgMEE1mOc3hFsHl+HNvWko0OXi3LbXsPCADE+PHoRH5DJIJUX4My0NxpT1MzZNWwhjyqrqePXPbwbkXfDCs63x++aV+Eb+NEb2byQcEKGBYrlm/mabi87r4v5QvzqmvvqrAbqJA0tnY/eFfGjzzmPnGwuxTxKI0UOaVC4mxeJXKuardnh63HDYHV2OVzefxW1tAdK/eRuhu64Ihb4ZOUx4Evfec+cYTfdSkKWiEXV4I4pIe52ilgaRh5UFWciVpJBKSNm8H82PzCIt+1+lb0tg29ejllKQhxVZWMhJqZCSRNmc+s2PpCzD08jGB5/LFpTp91yNpAVPupBKYklKtYKkSmcKmB5BFw1PvusXYKio6YSDwoPTjOI4mu+rIt/5ccZt7VWKXPAkuagkZKlUs/EpyTlgOkUYGxDF7AVlhm1TYyW6tm4AKWTdafmv5Y9mm0SbTSeWDSQ3lSXJ1SqSWajIbeC79KNhhadpXVZ9yL4wcR0N81CRBZNfzfTgFjSPpjxmVe2CshuRc6mrvZTZ04qslXKy7ziKls4JJI1mMIXrF+vo5VY1p5e+LX2A/xqtG6AgWfflZJZoVRaUicliOCP7BC0b6EYqSzmpVTKyYLINfPfHstWiqqYTSDADo5gS3+lMqg5vsb/F5RGHje/4QurfXEkWMjnJZI2p29ih1F5d+hC/+PhNc/eCsqryxM33JZXvfGE7jxI+m0SPe2iYP1mTs38ITRvmRQqDvGw0d9mHYTJOGcWp9MUEH9JYMt9tZEMqmYwc/KfSnjSjQRvat7XXj9PC/s1JaSEjOeurcbexNLS9WliEYjjB5HgNcWjXlZ4OaMquZzaxUJBz7zl0MNOocO2NSJrb1Z6kzB5W1kqS23ekUUvnUKBGQ4PDs6i4Oh2xLHJsOtOjpYIadXiDjl8x3YZWvzBDVR7/+oU8P77hTaqKcXBrMwWpHGnsPiFHXI+ipUEeZGVhQXIl06NESc37zadIg6OYkc/uyr/1y2+sAdO+e5eM+iHNJ1+VL82PMzOHmpK5lt+WoF9QeXJFELkpLUgmZ3Zv3IWCejmTUlhcpLdB4rph5KGyYD6qZr7qRkHzptBjVg0Vq3oTTCcvhSUpGnWgN45n0Np+Kmr+0rdCLmM9iPie1rDoSE2tBo2lPk0VpFSyfCZzooA3v6Ur+jFob1Dk3K5kL2X6srImpdyeOo5aSnMCNaQZHM7GWXlBWf3zm5HixEXURS4lD5aXy60tTn1jWZy/1+ZiuU/MH/SItWESM3Jhpfmi8Ed6w1tF3Zf/WrYI7NbmIFIJdYshppV21PXpAGoq19vMghTOvWnOwUxDe1VrB9PxK+arhgbo+ML+1NxgPxmzXzcaO7Q9qUvtJ5LDJPp/DIXwfUCXk4bYs39A5+yDLu7GL0PW3k5DfGIGchXOaOfjCfuylT/VoL2NtPhEZOQq4NzOB54mT9ZTguzUOJzLApxa+6BlY7Hz76YkOxVxxgbg07Jx+cKkeqC7sgZPeiyD+1e/YcNTpT/kYGKsumtYP+xFYP3X+D9znmcSKMn+DXFJ7E7VsTV8vR0qj702uiz6E+djz+Nmo1bwbdsEpn56QpeTjrNn01GgaYmO7ZtBLeyvCd219TCK9n+ohWiVEZWF6fa3OCRlauHY2hfeDuZbsbbyVEtBFpLPpiLPoR0e9dDc/XFJrf26LuiQlRiNK7Y+6NTCWthXiKNTW2Ng4qu4c3y6sK96TMepDrmXk5Dw2y1YOHihY5smUApHjDS0bxcgK/ksUvMc0O5RD2iquaym8d7Y8BRaLHDGntQP0f58PK4oPNCxrVPl8epykH72LNILNGjZsT2amWN0dk1a7Fn8oXOGT2d32KIObYiixe20eCRm5ELh3A4+nva1ykfV5d9657d77rv1k7kqRddSEPtrLhzbt0fmOx3R//RE5P9vpnBUn+rOI/b8TTRq5Yu2TarJdPWSV4ectFic/UMHZ5/OcLetxnHN9D1dbjpi4y5D5tEJPpVOYn2kn8XZ9AJoWnZE+yrHrqx5Eh7L3HHn0gbjngbIb7prn2FYm/fgfTAW73arrXXqHsvm8vfa3FQNYoY/GKhfHVNf/ZVxYwOearEAzntS8WH784i/ooBHx7Zwqpzsq2Aqfk35ajkFWck4m5oHh3aPwqMaB6kxhxlKXM59peDULGqraEOzosu+oMokd04uoKEvfkkZZtwt/rO4QycXDKUXv8ww806cU3eK6Ze3O5LCPYS+SM1j2yV0/adV9LSTkjrNO2M85W/gfvv23e9uc/6dFNL/XvMiVdm7eP8GCujUrLakEL76r/7ogzaXflnUkxp3W0pl3673wPJvtHkDUs2nMQ8yNd0qcO4JhTj+qjfsAt7HJZ/nMKyTebdQyq7zsSdsJFo8dNZSouv8PQgb2eL+Pfz9r0WKjlOX4zXXYxjvpYHa2gpOPd5Beu+V2Dirs3DO/ed++7ZEYgFLC4noYg7Ow4/EwtLgC/8KCo/jVW87BLx/CT7PDRN21o+SmPnobGMP//cK8OKyKWgr/qj2386/yuYNDUuaFpYW7D//DP3d18cSOED+1RScvyyBc3tvOJr6fJ/DuSeU4GbaOfyaVQwbtzZo3aQuH0RyOJx/Fvm4mnIelyXOaO/taPLRMrPR3kb6uYsocGpbq0e9OJz7AS9uORwOh8PhcDgPDfzTYA6Hw+FwOBzOQwMvbjkcDofD4XA4Dw28uOVwOBwOh8PhPDTw4pbD4XA4HA6H89DwNxa3WlzctxQzVx8Tth9AtBexb+lMrD52Q9jB4XA4HA6Hw3mQ+VuL28yoLViz+4yw/QCizUTUljXYfeaWsIPD4XA4HA6H8yDDH0vgcDgcDofD4Tw03MfiNh+JW6fhCS97KOW28Ow3F0euVfyKXR2yjq9AsH8L2MilUDq0xoAZXyK5QDh8+2u80usFLNu0AAO97KBQaODeayLCztwWTmAtZB3HimB/tLCRQ6p0QOsBM/BlaQOG60Ow8ovlGNHJCWqZAvbegZizPwNa4xlsiInYOu0JeNkrIbf1RL+5R1B5iFk4viIY/i1sIJcq4dB6AGZ8mYzSIXI4HA6Hw+Fw/l7uW3Gbd+xNDH/xSxQNWo3/Ru3HO36/YP2OVJQIx0sS38dzQ5fjgu+b2HniDI6FjYFq30QMmnEYhocCSq4jNeYrvDNnP5q+thvHj3yKF2QHMXX4DOzLNjSA958biuUXfPHmzhM4cywMY1T7MHHQDBzWN6C//kwEFs6LRKs3diLqf3vwukcCVk1agIO5+g7ycOzN4XjxyyIMWv1fRO1/B36/rMeO1LIRIvH95zB0+QX4vrkTJ84cQ9gYFfZNHIQZhg44HA6Hw+FwOH87+l8ou/fkUESIA6kC3qfUEmGX9jKtf8qG5D1XsI0CipzsSspuyyil9Djj+rbhZG8ziMKv6TfCKFChoK5Lk6isicyNFKSxoWc2ZVF+5GRyVXajZZUboOH2NjRI34DhejkFrLpIWuFw4fFp5KnsQovPsWtyIijEQUUB76eWt395PT1lI6eeK1LZECNpsquSui1LKTvOGqVtw+3JZlA46YfI4XA4HA6Hw/l7uT/v3JakITE5B86+fmhhKeyzcESPbq0g1f+tzURcwhWUpKzDsI7t0b698fV46Ank37mApNQiwyWwdEdA75Yob6Ib/FsWISUxGRlxCbhSkoJ1wzqWXd/+8VCcyL+DC0mpMLQg0cCjpVPZ29UWGg0aSUpQVERsiIlIznGGr1+LCu33QLdWhhGyIcYh4UoJUtYNQ8fS9ts/jtAT+bhzIQmlQ+RwOBwOh8Ph/H3cp8cSSqDVss6kxkLRiARKpYL9q6cQhaw4tOkcjJmzZ2N26Wv+SoSFL8NznsJ1EiVUqopDtoSUVaKk06HQ2ACCZ1a4fvZ8rAwLx7LnPI1FtMQSlqWVq4Cxf0aJFlqmjspDVEKpEM4oLGQFsg06B8+s0P5szF8ZhvBlz6F0iBwOh8PhcDicv4/7U9xKXdHKXYEr55KQrRP2sYL2/IV04zO3lk3h7qJGXr4tugePxujRxteoAb7w9PZBS3thmNoMpKQYHpA1kpuIxN8t4eHdGi3cXaDOy4dt9+Cy60ePGgBfT2/4tLQXFVTq2gruiis4l5SN8iGex4V04zO3lk3d4aLOQ75tdwSXtj96FAb4esLbpyVKh8jhcDgcDofD+fu4TyWZHZ4eNxx2R5fj1c1ncVtbgPRv3kboritCIWmLwJChcDjzAV5e+j0uF7I69s9orBr3JHoPWYwTeYaTALqJA0tnY/eFfGjzzmPnGwuxTxKI0UOawC4wBEMdzuCDl5fie2MDiF41Dk/2HoLFZQ2YwO5pjBtuh6PLX8Xms7ehLUjHN2+HYtcVodS1DUTIUAec+eBlLP3+MivNtfgzehXGPdkbQxafgKGHkvM4HLYee87oV7hxOBwOh8PhcO439+39RvugFfj8TU+cfOVROKht0Oo/p9CuX1vIhON2z7yH7Qu74OK7T8LFRgWrZj0wL6Ed5m5ZjiBb4SSJBh1apODVDhqo7dpi7OFH8Er4xwhuysSwewbvbV+ILhffxZMuNlBZNUOPeQloN3cLlpc1YAp7BK34HG96nsQrjzpAbdMK/znVDv3alo0Qz7y3HQu7XMS7T7rARmWFZj3mIaHdXGxZHsTKc0ZBNNZNewXLD142XMHhcDgcDofDub9I9KvKhL/vCwVZyTibmgeHdo/CQ3N3ba29nYb4xAzkKpzRzscT9nLhwI0NeKrFAjjvScWH7c8j/ooCHh3bwkkpHC9Fextp8YnIyFXAuZ0PPMsaMJcCZCWfRWqeA9o96oG7h6jF7bR4JGbkQuHcDj6e9qhtDxwOh8PhcDice8N9L27rTFlx+zs2Pl21ouVwOBwOh8PhcO7jYwn1RiKBhaUF+0/Z9xtwOBwOh8PhcDiV+Oe8c8vhcDgcDofD4Yjwz3nnlsPhcDgcDofDEYEXtxwOh8PhcDichwZe3HI4HA6Hw+FwHhp4ccvhcDgcDofDeWjgxS2Hw+FwOBwO56GBF7ccDofD4XA4nIcGXtxyOBwOh8PhcB4aeHHL4XA4HA6Hw3lo4MUth8PhcDgcDuehgRe3HA6Hw+FwOJyHBl7ccjgcDofD4XAeGnhxy+FwOBwOh8N5aODFLYfD4XA4HA7noYEXtxwOh8PhcDichwZe3HI4HA6Hw+FwHhp4ccvhcDgcDofDeWjgxS2Hw+FwOBwO56GBF7ccDofD4XA4nIeGv6G41eHPox/i9Rnz8EVikbCvttzGiTUz8c6eC8L234T2IvYtnYnVx24IO8QoREZCMm7ohM1/I/mnsH7mPGxPKhF23G+0uLhvKWauPiZs/7u4fWINZr6zR9h6kHiAY6MwAwnJN1jmqiN/u883MLdPYM3Md7DnglbY8WCQf2o9Zs7bLmxx7if3Jq/k49T6mZi3PUnYFkOLjIMLETIgAI/1HY+NyQ96vNUsnzZ9P5a9zmqLo9fqnnfuCbn48dOZWLAjGQ+idiv64f0vbnUZ2LFkHtaFfYC5Hx5hqqoDulzERaxB+LFLwo6/CW0moraswe4zt4QdpmBF1adD4DdmOzL+zcVtUQZ+Ovwdzmb9XROjFplRW7Bm9xlh+9+EDrlxEVgT/qAV9g9wbLAb2E+H+GHM9oy6TzJ/u883LLrcOESsCcexSw/W9FaU8RMOf3dW2OLcP+5VXilCxk+H8d3ZLGFbhPwDmDd+Cf4n7YGhQ/qjg9OD/sF0TfIV4OTqWVgaSfB51PHB+nhdl4f4rz7BhsiLD2BxW9kP77vetOe/xBen3fCfV/sjb+8mfH3t31LpEXKv/Yncf3Nhq0fzPDYlnsa7fRXCDg7nAY4NysW1P3Pr9+4J9/n7gub5TUg8/a6wxfnno8HzmxJx+t2+wrZpdDmZyMxpiqdmLMTr015AV7sHvbitQT7tJVyzex7rti1GH42wj1Nr7rP1SxD7xZc46/IURs0IxgDLIwjfnob6v59RhIv752OobzNYy6RQObZB4IztOJcvHL59Gp+M7YlWDlaQy23h4jcCiyOv1n7Cyk/E1mlPwMteCbmtJ/rNPYJrJBxj6K79gPfHPg5vRyvILKVQNvZC35e3IblQh8xtkzBmQwoKU8MR0nMsNqfppb4P4779NV7pFYLl4aEY0u4RKOVWaN59Mr5MTsS2yb3g2kgOuZ0XBi6Jws3ShnVZOL4iGP4tbCCXKuHQegBmfJnM7if13MbXr/RCyMovsHxEJzipZVDYeyNwzn5klBmyBBmHFuF5f1doFDKoHNrhmbcPGI/rx9OjP0KjjI+kFF3cj/lDfdHMWgapyhFtAmdge7kCRPuqWefG4/qPfhK3TsMTXvZMdlt49puLIxWNJmYDNobTn4xFz1YOsJLLYevihxGLI3G1ts5Tb52aiw5Zx1cg2L8FbORMHw6tMWDGl0g2dlQ3DD70ApZtWoCBXnZQKDRw7zURYWduG4/rrmHnpJ4Y9G4M06ZASTw+GNYTEz7/g22Ykq+OsWEubGw/vD8Wj3s7wkpmCamyMbz6voxtpQ4ixMfKL5ZjRCcnqGUK2HsHYs7+DGh1mdg2aQw2pBQiNTwEPcduhn5ouqzjWBHsjxY2ctaeA1oPmMHiqVTB2dgzpReC587D8Db2sLL3xaxvdlTyeeb02D9/KHybWUMmVcGxTSBmbD/HPNVI9p4p6BU8F/OGt4G9lT18Z5n/jtjt059gbM9WcLBicW3rAr8RixFZ5qz3wDf0mPTtWsDy6+dT+6KVnRIKTUs8OWcrPnqpl+BDOlzbOQk9B72LmHInQ/wHw9BzwueGrdtfv4Ie/UMNf+sxaafsPZjSKxhz5w1HG3sr2PvOwjFmANO2NR/RvCTIaphLrJuj+8Q1WDnpMYz4KNFwuFofENUzy3WfT0VfQ66zZnl+ItasnITHRnxkPCwSC/Xxu8owW/3wPsY+7g1HKxks2Vgbe/XFy9uSUZaWzUKfN3qgf2iU8HfNObLk7Co8+/QK5htZ+HpqD3R/5Wt2hUgOqcYHvtnxCnqFLEd46BC0e4TZxorZZjKLkcRtmNzLFY3YHGDnNRBLom4KjYjLWpJxCIue94erRgGZygHtnnkbB4yTYQX59Ajj9QvA2HeWYOITvpXGq/fvXiEr8cXyEejkpIZMYQ/vwDnYX+tJQmROE8lPeij7RywO8oYdu97G7TFMDItFjnCsbr5rLrXIYXQ/KfiBXm2ppE7zY6mYcujABGdSdJpPscXCcXPRXqKP+qjIbcr3hs28E7Opg9qWOk34mA6ejKbIzTOop4Oc3MbvpWvaYvrpzQ5k1XoshR2NpcRfvqX3h7qQvPlEOpRruNxMcunoq16keOQxev3z43Tq+Daa3duJpBIZ9VyRyo5fp13BTqRsNZI++jaGEhKiaf97Q8lNpqGhW29QTvxeWjzUjWQtBtOCsL0Ud/M+jft6GAUqZKRyHUChEScpNmotjXCVkU1jF+ry4nqK/CmaImb1II2yOy1PKWEXFFPCigDS2HWml9YeoujYk/TVksHkrm5Jkw6xQTM5wwKVpLR2pyfmbqXjMUzOxYHUTNaUxu3LMXRZGLuI/K1tyXfiOjoSc4aOho2nDlYaGrDmd+N4lI40dt8dvQJodgc12XaaQB8fPEnRkZtpRk8HkruNp73XtGb0ZVrnenKPvkpeikfosdc/p+OnjtO22b3JSSohWc8VhuOmbcC08dObbOytaWzYUYpN/IW+fX8oucib08RaGaH+OjWX4oQVFKCxo84vraVD0bF08qslNNhdTS0nHaKbpKVLH/UhldsU4WwzMfiQnJSPdKIJnx6hkz9sp7l9nEjm8h/aq1dzhXgsMF7BnOB/9JqXqiw2TMlX+9gwdmEO13cFk5OyFY386FuKSUig6P3v0VA3GWmGbiWDhxj8UUnW7k/Q3K3HKSZ6Py0ObEaypuNoX04Oxe9dbDi/xeAFFLY3jm4WJ9CKAA3ZdX6J1h6KptiTX9GSwe6kbjmJDKbUXqW1/eRkoe5IL209QSd276KolHXlPk95dGJ2B1LbMl1+fJBORkfS5hk9yUHuRuP3XmMW0tLVtf1IbqGmji9tpRMndtOuqGv6kYpT/BO92cGKWo8No6OxifTLt+/TUBc5NZ94iGUvMd8wH+2lj6iPyo2mfK+3tphvm0suHZvuTQr7bjQt/BidOvYZywXOZKWUCz5U7ruGbg0U0v9e8yKVEMvXwwJJ6TjW8DcT1qSdtFfXUj+5Bak7vkRbT5yg3bui6FqhiG3NRiwv5VDkK8JcsuUYRUftpPmBLZjNpdRmVjQ7Xp0PZIrqOSfyFSHXbaFj0VG0c34gtWAyStvMMhw3HQv18LsKtjFwfRcFOymp1ciP6NuYBEpgMfWePr41Q0lIy2ZizBuOY/eV/V1TDtFePUU7PhhD7eQO1G/2p7TpcDJli+SQ6nwgZV0gKWQqch0QShEnYylq7QhyldlQY5cu9OL6SPopOoJm9dCQsvtyYYgishbG0iJ/a7L1nUjrjsTQmaNhNJ7FqGbAGvq9pKJ84jnP4N9Ka3J/Yi5tPR7D7LeYApvJqOk44/XmYnpOE8lPQn6TWNqR35QNFHkqirbP7UNNZG408UA2u75uvmsutZnf7mtxm3tgAjVXdadlyfoiiujOsVfIU+5BL3+fZ9g2m0rFbQ7tfqExqbovI6FZhpYyNw8ijbovfZyeRxHB9tSo12L65ZZxVixJ+47Wr9lHibWpG3IiKMRBRQHvp1JpN9rL6+kpGyH5arPo9PbVFP6DfoISKIyi6a2U1GXxOXZNMcWHdiaVz9v0i6GYv0/jFgoT/RiN3RTQkUkuJHOdREf0cy1Dm/kJPaFsShMOsB0FkTTZVUndlqWUyalPLNuG25PNoHC6ZkgyCpIHrKKLpYIWHqdpnkY59RPO8WmepPB5i84UGg/rJ67vF4+iCZ+cNo5HmOhzdr9AjSv4gx5t5mYapFFT34/TmTZE+hLVeQ5FhDiQKuB9Si03Gq1/yobkhglRzAZauhMRTPaNetHiX24Z+yhJo+/Wr6F9tTFCvXVqLgUUOdmVlN2WkeE+ReD6tuFkbzOIwlmGrHtxq6CuS5PKxq/N3EhBGht6ZlMWS3jmFLem5KttbJRZWwQtZZ3eTqvDf6hQEBdS1PRWpOyymM7p2xbiI2DVxTIfKjw+jTyVXWix/oTieArtrCKft39ho9SbcjK5KrvRssoKpuH2NjQonBUDhuSvIGW/NXS5tMEKPs+cnl5orKLuy5LLfUGbSZsHaUjd92NK1xonB4WyH60pa8BM7kRQsH0j6rX4FzKmjBJK+249rdmXyDQq5hvCDjOoVNyK+raZ5H5Fox2UTC/l7WjTP6UBjepW3IrZyVDYKJTUb83lMruL2tZcxPLSzS9pBLNT/zX6HCdwYye94CirVNxW8gFRPd+kL0ew+aL/GuZDwmFWsu58wZFkhuJWLBbq4Xes7Yp5RZt1mravDqcfyjti4k+nVqUxZTYViz/xHGmYx1TuNPWo3kHEc0h1PqD3IYW8J60onTAKjtAkFxm5TjpCxumStfHJE6RsOsG4JSKrIZcofOit8smQcr9fTKMmfEKnCyrKJz5e49gCaFW5Agxzrd5+tcHknCaWn4qF/PbYe3S+9ARhTtUM/bzsJql2vmsutZvf7uNjCTdxcNt+ZDV1Bk5+jvDwcHyZagV3mwzs3niQHa0jJb8jISUPLbr3goelsA8WcAzoibba84g/Z4k+Y0bD5ed58GvWHB37j8acr3PgP2Ig2lkLp5tBSVoiknOc4evXAqXdWDj2QLdW0tIN+D8/Gn63I7Bs9hSMGdYPfm0HY02qFjqdDhU/CDdwn8ZtQGIDTy9nYdwSqK1VkDZ1RQuZYQcs1GqoJFqUaAFtZhwSrpQgZd0wdGzfHu0Nr8cReiIfdy4kIdXwkaAEGo+WKHte30IDTSMJSorYQV02ks5dhu2j/mgnF47DCn3f2oaNL/sL23pK8HtCCvJadEevcgUwNQagZ1stzsefQ7Fhj4m+xHRekobE5Bw4+/qhRbnR0KNbKxisJmqDYij7jMFol58xz68Zmnfsj9FzvkaO/wgMrIUR6q1Tc9FmIi7hCkpS1mFYx9J+2uPx0BPIv3MBScaO6oalOwJ6t6zg+93g37IIKYkXzFxYUAv5zLCLebBr/J/HaL/biFg2G1PGDEM/v7YYvCYVWuYfutKglGjg0dKJnW3EQqNBI0kJioqqRq0WmXEJuFKSgnXDOpbpt/3joTiRfwcXklKFxzIksHN1hX1pgxUo+T0BKXkt0L2XR5ku9T4Z0LMttOfjUSqaxM4VrtU1YAplH4wZ7YKf5/mhWfOO6D96Dr7O8ceIge1gfY98wzzfFkebnoSUv5zwaFe3ch9zDsBjrYX8WivMtJPEDq6u9oLdzbWtGYjkpeJf45Gc74ou/s3KfA6a7ujWTkjIAhV9QFTP+b8iPjkfrl380ay8UXTv1g7GVs2LhTr5XRUsHP3x/Gg/3I5YhtlTxmBYPz+0HbwGqVrWT1nQ1YV7kEMq+YARiY0nvJyFiyRqWKukaOraokyParUKEq0x65mWVYvspHO4bPso/MsnQ1j1fQvbNr4M/4qP4Js5XonGAy3LFQCNphEkJbWLXVNzmnn5yRKu3XrCrSxQHdG1iycKkhNwQRhKrXzX3OHXMofVz4trge7q19j27W3YWlzAjo9WY/Vq9vrkMK5ZWyP74Gbs+qO2DzGWUgS9n0lllZOgxFLKChjmYFqC3YAPcSr2MNa9EQT33FPYOOtZ+PuOwObfa/GsCqv8tExd0ordSJRQKiTGv3WZ2D3eD37PvYOIuGwoPAIwbuECjHCpScX3adx6JDLIKudNtk9S7rwVKSxkI7NB5+CZmD17dtlr/sowhC97Dp6G4bJrLatcLagBrCTVF8lSS1n5rhooMirAWGiWIrE06FifGIxp0ERfojovgZaNxaKy0aBUKoQmxG3AjIAPT8Xi8Lo3EOSei1MbZ+FZf1+M2Py7+c+K11un5lKIQhbfNp2DMbNCP7Pnr0RY+DI8Z+yobjBfV6kq+jKzExsusYmxlMrTFtMfVdxTG/nMsItZ6JC5ezz8/J7DOxFxyFZ4IGDcQiwY4VI58TGfM3dohUYFI3hmBf3Ono+VYeFY9pyn4Mt6WaXVt1HEbiLZWZVFY+cbnR6loknYgKS1tr8dBnx4CrGH1+GNIHfkntqIWc/6w3fEZvyuvUe+YZZvmwdJmH0tKwjNCgu1qooSqpheXyxV5w1m2Ulv9wpKNs+2ZmDWXEBs7KbnvEo+YKae9fFYfavmxULd/K4yuszdGO/nh+feiUBctgIeAeOwcMEI1DgVms09yCFVfECPhE2Wd0+XVfoVEJO12DgZQiaqU/PGq7dP5ZHUwVim5jQz85NMLqvkN1Kpfqs8Fuviu+LULofV293MQ4uMXdtwVNcfy6JiERcXV/b6JXIeehYfQ/jWFPOLhYpIXeHuIsWlxMTyBVGM/PgE/IrmcHP9CzE7VmPP1UcxYWEY9p5KxeX4VXg89xC2HbwqnC2O1LUV3BVXcC4puzx5FJ7HhXTmkQzdpd1Yu/M6+q6OwZn/7sCGlfMxNagJiv9iZwtJjNWT5dyncdcWy6bucFHnId+2O4JHj8Zow2sUBvh6wtunZbXvRlXCojHcXGyQnXq+wqKrEiRvnIxRCw4I23qkcHV3gfRSIhIrKwAJvwLN3dxRNcFURVTnTMet3BW4ci4J2WVdFOL8hXTju41iNnC3xI2YHVi95yoenbAQYXtPIfVyPFY9notD2w6avais3jo1F8umTB418vJt0T24tJ/RGDXAF57ePmhZn460GUhJqfDFfbnMbr9bwsNb/y64vjgkFBXeKS80iq7i6nUzFcSoVWy4i3mGgO4Sdq/diet9VyPmzH+xY8NKzJ8ahCbFf+mni/I4NomkwvRhiabMZ9V5+bDtHlym39GjBsDX0xs+LSu/A1QdUlfmC9JLSEy8WaH/fMQbnR7milYduhsx2LF6D64+OgELw/biVOplxK96HLmHtuHgn03uiW80lG9btvBGS7U+v14v10tBCs5XuJHXFzZUVIg75U6Gq1crnF9GXexUf9uWIpaXpK06oI0qHWdiKiwO/isGMck1fyIhqmd5K3Roo0L6mZgKeYnNITHJxk/AGiQWzEGHS7vXYuf1vlgdcwb/3bEBK+dPRVCTYlSYCu89DZVDTCImqwUau7nAJjsV5ytMFiXJGzF51AIcuFJhYPdlvHp0Jue06y3MyU9aXL7wa4Wvcc1BQkIapO5e1RaqDTb/1XJ+M7fZ+qE9j+3bT0H2xPMY3KRyl5buIzGqjwK/bA3HaVaV157GCAoZCHXkUkwNi0E2q1ryf/sKsxfsRl63kXi2jRS/7V2CqdMW4VCGfv1iCf66/AduFNnDxcXW2IQ52D2NccPtcHT5q9h89ja0Ben45u1Q7Cp1UP07kJIi/JmWhltsl/bGz9g0bSG+uaW/cdEv5ZNArpCDcm/hlqGyuk/jri22gQgZ6oAzH7yMpd9fZqWgFn9Gr8K4J3tjyOITyBNOqxk1+owcAqfojzF3SxJyWDbLSdqC0CWf4eecyuNuHBSCgepILJ0ahhijAvDV7AXYndcNI5/1ZtONCKI6t8PT44bD7uhyvLr5LG5rC5D+zdsI3XVFCFwRG3jLIPltL5ZMnYZFhzIMq19L/rqMP24Uwd7FBbbmRk+9dWoutggMGQqHMx/g5aXf4zIbsPbPaKwa9yR6D1mME/XpiG7iwNLZ2H0hH9q889j5xkLskwRi9JAmsLDQwNXVDteP7cL+NNZpYQa+XbQKh2+XVSEi1DI2vEU9Q0D/DoQERX+mIc3oIPh50zQsNDqIeSt1JXIo5ITcW7cMN0S2gSEY6nAGH7y8FN8bFYzoVePwZO8hWGyOghsHIWSgGpFLpyIsJpu1mY/fvpqNBbvz0G3kszBbtGqwkPyGvUumYtqiQzCmjL9w+Y8bKLJ3gYut3b3xjYby7UaBGDvCESfeexUbYm9By3zoUGgodmaWFrcW0Li6wu76Mezan8b6KUTGt4uw6vDtat+5rYud6m3bUsTykiYIk0Ka4cTCEMz67ChO/rAL74x+DTuzqPJNXkVE9axB0KQQNDuxECGzPsPRkz9g1zuj8drOLJCh0QaIBTPRv/soKfoTaWm3WJ7V4sbPmzBt4Te4pbdaQ3ZkkobKIaYRk1XdZySGOEXj47lbkJTDbiJykrAldAk++zkHtpW+quz+jFcfRybnNAdz8hPh1sFleHNvGgp0uTi37TUsPCDD06MH4ZHq5sQGm/9qOb8Znry9xxTHvEkdZI/Q8zv1q+nu5saXz9EjUmca/81fwh4Rqnxbgn4RR+SCJ8lFJSFLpZoUUiU5B0yniIvGr2EoTv2CJvhoyNJSSY1sVCSTOZD/1D2UVuGhZHPQXj9OC/s3J6WFjOQyGTXuNpaGtlcLC8puUOTcrmQvtSC5lTUp5fbUcdRSmhOoIc3gcMrS6hfQTScvhSUpGnWgN6IK78+49YtZVE1pwkFh9RgV0o9veJOq+3L6tbSdW5spSFW6mlsvZxQtDfIgKwsmi1JBUomSmvebT5F6IQwP9quo6YSDwgP2jOI4mu+rIt/5ccZtbTadWDaQ3FSWJFezcVswWw18l37UL4ysuLhG//B55AJ60kVFEiajWiElpXMATY+4aFi8I9qXGTpnwtDxhf2pudKCZHIZyRp3o7FD25NaWIQiZgNmBPpigg9pLC1J2ciGVMzuDv5TaU8tnafeOjUXJm/U0iDysLIgC7mSySMhZfN+ND8yi2m7HgvKlHbU9ekAasp0KJdZkMK5N805mGlckMAoTFxHwzxUZMH0p2Z6dAuaR1Mes6qwoMy0fLWNDfPQ0o3IudTVXsp0YUXWSjnZdxxFS+cEkkYzmML1ur8rPvRDm0++Kl+aH6fv6w4dm+5FCksFNerwBkUVaul61FIK8rAiCws5KZnPSpTNqd/8SMHf9AsuVNT8pW/LF9dV8nn9KZG04EkXUkmYT6mZLyidKWB6BBlFMy7IUDV/ib4ta8Bciin1iwnko7FkOmtENirm7w7+NHVPmnEhh0nfMJ/K35agb9aUb9eCmydpRZCbMb8yP2vcJYh6OSsFH2IUJtK6YR6ksmB5Qs38zC2I5k15jKyq+7YEJpEpOxkWE6ma00uVlCxiW3MxJy/lJdBnkx4nD42CZNbO5B8yjYZ5KajDW2f0DVTrA+J6zqOEzybR4x4aUsisydk/hKYNY77b4S12TCwWiuvhd1UWlN2IpLld7UnKdGhlrSS5fUcatXQOBWo0NDi8Nr6mzxsVF5SZziGVF5Tpd5jOIdX5gN6HVE0nUPl0+SO94a2i7st/LVsMdWtzEKkEPxOXVUvZJ5bRQDcVWcrVbP6wYHoaSO8aJ8MK8ukbMz3eu8bG4j1uvi+pfOcL22YiMqeZzE+G/KamVoPGUp+mClIqZWQhc6KAN7+lKwbD1tV3zaQW85tE/49Q5/7jKclORdy5LMCpNXxaNkb5I9wMdodxOSkBv92ygINXR7RpohQO1JYCZCWfRWqeA9o96gFNpTsVHXLSz+JsegE0LTuifTO1sL8UdjwtFmf/0MHZpzPchbf+7s+4a4sWt9PikZiRC4VzO/h42lcelxmUZP+GuKRMaB1bw9fboebrS7KRGncOWXBCa5+WaFyrjsR0bqQgKxlnU/Pg0O5ReFQ2mgGTNmB95F5OQsJvt2Dh4IWObZqgblaov07NRXs7DfGJGchVOKOdjyfs69PRjQ14qsUCOO9JxYftzyP+igIeHdvCqaoSiv7E+djzuNmoFXzbNkHtfrKgDrFhJrqcdJw9m44CTUt0bN8M1XuICXQ5SIs9iz90zvDp7G58x157G2nxicjIVcC5nQ88a63gEmSnxsEomg9a1s7pTaLLvYykhN9wy8IBXh3boGrKaFDfKKOhfLsI11Ji8WuuI9q3z8Q7Hfvj9MQE/G+mZ9nxP8/H4vzNRmjl2xZNxJysLnaqt231mMhLuiwkRl+BrU8ntChdl1p4FFNbD0Tiq+dxfLqLsLM6atKzDlmJ0bhi64NO5Y3i6NTWGJj4Ku4cn27YU+9YMBcWM+lnzyK9QIOWHdujhrR8X2iIHGISc2Rlc9xvcUnI1Dqita83HEwM4p6P14DYnCaen3S56YiNuwyZRyf4mGXghpv/zMlhD1Vxy+Fw7gFlxe3v2Pj0/bq54vzrKfoRr3eoWtw+BJTEYp5fd3zRYTOOrA+Gp+IGYj4ag0FvZuLF/8Xgnc5mr7CpQAli5/mh+xcdsPnIegR7KnAj5iOMGfQmMl/8H2Lf6Sycx+H8O7j7LSwOh8OpiEQCC0sL9p+aHgjkcO4Fer+zhMXD5nfSjpi6/DW4HhsPL40a1lZO6PFOOnqv3IhZdSps9UjRcepyvOZ6DOO9NFBbW8GpxztI770SG2fxwpbz74O/c8vhcDgczv2m5CbSzv2KrGIbuLVpjSYN8tF9CW6mncOvWcWwcWuD1g3TKIfzj4MXtxwOh8PhcDichwb+WAKHw+FwOBwO56GBF7ccDofD4XA4nIcGXtxyOBwOh8PhcB4a/sbiVouL+5Zi5upjwvbfRGEGEpJvwPiLVQ8mhRkJSL7xII/QHG7jxJqZeGfPBWH7QaUQGQnJqLu6c/HjpzOxYEcyDD+2VQdyf/wUMxfsELYeFB6QeK01997vtBf3YenM1TjWoDGqxW9fLcJr06djuv41YwZee2M25i35BLtPZxp+Waj+/D0xeW/0VVvqG+f3gX/A3MSpifrPA/8ctEjfvwyvs5g+es2Ut1aeQ/JPrcfMedsNf98L/tbiNjNqC9bsPiNs/w1oL+LTIX4Ysz3jgU0g2oufYojfGGzP+IenOF0u4iLWIPzYJWHHgwgLvk+HwG/MdtRZ3bo8xH/1CTZEXqxzUitMP43DR+KFrQeFByBe68J98DttZhS2rNmNM7cacm1uCf44/hk+2fI9fr1+AzeuX8e1zN/wy6EP8eJjbdH1/3YhrfSXaevK3xST90ZftaEB4vxe8w+YmzgmaIB54B9DwUmsnrUUkeSDRx1NlZSV55CijJ9w+Luzhr/vBf/uxxIoF9f+zH2gkwflXsOfuTy93R8Iudf+xN+t7sbBnyHx5FJhi/NvRtIkEG9t3oqtW7di2/Y9OPhjEn75fBByP/s/TFybyqYLTu15MOLcJP+AuYnD0aO9dA12z6/DtsV9oBH2mYPm+U1IPP2usNXw3MfiNh+JW6fhCS97KOW28Ow3F0euVbxz1yHr+AoE+7eAjVwKpUNrDJjxJZILhMO3v8YrvV7Ask0LMNDLDgqFBu69JiLszG3hBB2u/fA+xj7uDUcrGSylSjT26ouXtyUbP8LL3oMpvYIxd95wtLG3gn2nKXhz4hhsSClEangIeo7djDStSBu4ja9f6YWQ5eEIHdIOjyjlsGreHZO/TEbitsno5doIcrkdvAYuQdRNIS3psnB8RTD8W9hAztpzaD0AM9j55WK9gl4hK/HF8hHo5KSGTGEP78A52J+hhS5zGyaN2YCUwlSEh/TE2M1p7IoiXNw/H0N9m8FaJoXKsQ0CZ2zHuXxje2Loso5jRbA/WtjIIVU6oPWAGfiyVMkGHYdg5RfLMaKTE9QyBey9AzFnf4Z5k6iIrObDfOXzqejbyg5KZueWT87B1o9eQq8JnxuO6q7txKSeg/BuTJFhW09J/AcY1nMCPv/DqHeTclaLDpnbJmHMhhQUpoYjpOdYbE77E3um9ELw3HkY3sYeVva+mHUsn/X/A94f+zi8Ha0gs2S+2tgLfV/ehuQKnxVT9o9YHOQNO7kcNm6PYWJYLHKEY6wB/PD+WDzu7QgrmSUbX2N49X0Z24QGsvdMQY/ARYa/9eMy7ZM1U5JxCIue94erRgGZygHtnnkbB5hf6RGXQSReRWQwhTk+uDw8FEPaPcL6tkLz7pPZ8URsm9wLro3kkNt5YeCSKBhDzBiTLyzbhAUDvWCnUEDj3ovp+ww7Uh0iecYMfecnbsW0J7xgz+Lf1rMf5h65xsqlcoou7sf8ob5oZi2DVOWINoEzsN3cABVFAY8XPsDiITJEbfwMccLbQrX392oouoj984fCt5k1ZFIVHNsEYsb2c8wTBG6fxidje6KVgxXLc7Zw8RuBxZFXmcZMI6Yv02MXt6+YL+vjqVfwXMwb3gb2VnZoP3BQlThnMSHiz8Y8vRzhoUPQ7hEl5FbN0X0y85vEbZjcyxWNWJzbeQ3EkqibhvP11DnX6jKxbVLVuYldI2Kf26c/wdiereBgxWLE1gV+IxYj8qqode5xrs2uPoeaYfNazbP3xHdv4/QnY9GzlQOsmH1tXfwwYnEkSlVa73lAJBdV9lt7+M4y8UiYCfnMsWGNlGTg0KLn4e+qgUKmgkO7Z/D2AaEeEHTuFzAW7yyZiCd8q+hc71sm5hB9TPXoHyps6fPE55ja15gnrJm9J65ZiUmPjcBHiUKSE7NxVfTfc3s/yD36KnkpHqHHXv+cjp86Tttm9yYnqYRkPVcYjhcnrKAAjR11fmktHYqOpZNfLaHB7mpqOekQ3dSfcD2MAhVyUj7SiSZ8eoRO/rCd5vZxIpnLf2jvDf3xXRTspKRWIz+ib2MSKCF6P7031I1kmqG0lR3XXl1L/eQWpO74Em09cYJ27/qWjn+1mIa6yajF4AUUtjeOboq0wTqhsEAFyVSuNCA0gk7GRtHaEa4ks2lMLl1epPWRP1F0xCzqoVFS9+Up7PxiSlgRQBq7zvTS2kMUHXuSvloymNzVLWnSIYNUTKxAUiqtyf2JubT1eAxF719Mgc1k1HTcPqKceNq7eCi5yVrQ4AVhtDfuJuWdmE0d1LbUacLHdPBkNEVunkE9HeTkNn4vXdMamqyZ4gRaEaAhu84v0dpD0RR78itaMtid1C0nkWE4eh0rlWTt/gTN3XqcYpj8iwObkazpONqXY2yiZkRk1V6ij/qoyG3K98L5NZN7bDp5K+yp27RwOnbqGH02oyc5WylJLviK9tJH1EflRlO+LzBs6yn832vkpepJK1JLxOWsgZz4vbRYb+8Wg2lB2F6Ku3GV1vaTk4W6I7209QSd2L2Loq5do13BTqRsNZI++jaGEhKiaf97ehtpaKjR0QzXSCztyG/KBoo8FUXb5/ahJjI3mngg29DP9V3B5KRsRSM/+pZiEhKYzd8z+KFm6Fa6QVq6urYfKZtOMJwr5tc1UhhLi/ytydZ3Iq07EkNnjobR+A5WpBmwhn4vuW5aBoZYvJqWwQTm+KBCRirXARQacZJio9bSCFcZ2TR2oS4vrqfIn6IpYlYP0ii70/IUZmshJuXKR1hMfEpHTv5g0LeTzIX+o08MVfxOPM+I6Dv3KL3qpaBHHnudPj9+io5vm029naQkkQm+l3eCZndQk22nCfTxwZMUHbmZZvR0ILnbeNorGqAVKaBjr3iQ3PsN+rFQ2FWG3kf6k0LxJH16lbVZR3+vrJs8OjG7A6ltWX79+CCdjI6kzSzuHORuNH7vNdZjMf30Zgeyaj2Wwo7GUuIv39L7Q11I3nwiHco1NlctYvoSHbuIfdlx075sjCe5hZo6vrSVTpzYTZ+Hb6kc56wfMX/W52k2uZPrgFCKOBlLUWtHkKvMhhq7dKEX10fST9ERNKuHhpTdl+sHbZ6f15hrcyh+b5W5Scw+xT/Rmyy+W48No6OxifTLt+/TUBc5NZ94iEya517nWiEfVsqhmWfNsrn58+y98d3in96kDlataWzYUYpN/IW+fX8oucib00TDRSJ+Z8Y8YDoX3e23u6KuGa67G9PyidqwRgopdpE/Wdv60sR1RyjmzFEKG8/60QygNb//JaJzM+YQfe3jONbwN+VE0itCnthyLJqids6nwBbMb6RtaFa0PgGK2fhu7lNxm0MRIQ6kCnifynSpvUzrn7IRgqiAIie7krLbMjLMVwLXtw0ne5tBFK63qWHSU1DXpUlU1kTmRgrS2NAzm7KoOOs0bV8dTj9UmEAKo6ZTK2UXWnyuxFjcKpTUb83lckUUx1NoZxX5vP0Lcw/WnkgbpUGnH3OpHAVHJpGLzJUmHblj3KHNpE+eUFLTCQfYwUia7KqkbstSysasb2PbcHuyGRRORrFY0pQH0KqLpX0W0vFpnqTsstiwVRwfSp1VPvT2L/oR5tDuFxqTqvsySi5rUEuZmweRRt2XPk6vzsTlFEROJldlN1pWWck03N6GBumVLNxABKy6WKajwuPTyLNMfhOIyWp2cZtLX412YJNEBV/QptOnAxqZnXBF5ayRYooP7Uwqn7fJoG5DglKQst8aulyqEG0Wnd6+msJ/qBBQhVE0vZWSuiw+RyWl1zz2Hp0vG7/R1zVDPzcUr1mnt9Pq8B8q3IwUUtT0VgabnyupXNyK+2T1GOym8KG3zpRXRrnfL6ZREz6h0/kiMojGq5gMwq5qMNcHe65IFfyogI5MciGZ6yQqD7FP6AllU5pwQL/DGJOKrkspqWysmbQxSEM2z2yirOKKfieeZ8T0nRMRQg6qAHq/XDF0ef1TZCM3+l7O7heosao7LSsPUDaczTRIo6a+H6eX61sUU8UtS/U7RpCNjI2JCV1nf68Ykzm76YXGKuq+LLk8fpkeNw/SkLrvx5SuvUMRwfbUqNdi+uWWUYqStO9o/Zp9lGjixldMX+JjF7OvmC8b40mh7EdryoK4Spyzc8T82ZinKxQDBUdokouMXCcdIaNbsjz8yRNlcVvvXFtlbhK1T14EBds3ol6LfyGjeUoo7bv1tGZfIovmmrgPubaaHGquzc2eZ++R796JCCb7Rr1o8S+3jDYqSaPv1q+hffqL6j0PiOWi6vy2JkzLV+fitvA4TfNUkM9bZ1g0COR+T4tHTaBPjm0X0bnYHKIPgfLi9uaXI5iu+9OaCjXMjZ0vkKNMKG5FbSzsq8D9eSyhJA2JyTlw9vVDC0thn4UjenRrBcMvaWszEZdwBSUp6zCsY3u0b298PR56Avl3LiApVXg73dIdAb1boryJbvBvWYSUxAvQOfrj+dF+uB2xDLOnjMGwfn5oO3gNUrU66HTCW+ESO7i62tf4LIaFOW1AAhtPLzgLg5CoraGSNoVrC5lxh4UaapUE2hItEysOCVdKkLJuGDoKMrVv/zhCT+TjzoUklIol0XigpVPpqCyg0TSCpKT8I4QySn5HQkoeWnTvBY9SJbDzHQN6oq32POLPFQv7qkOLzLgEXClJwbphHct03P7xUJzIv4MLSakw9CjRwKOlU5mOLDQaNJKUoKio4geJd2OurKJo05GU8hecHu0KtzJDOyPgsdZGXxHFTDnNRgI7V1fYlynEEf7Pj4bf7Qgsmz0FY4b1g1/bwViTqmU+ohM+brWEa7eeFcbviK5dPFGQnIALRcxe/s9jtN9tRCybjSljhqGfX1sMXpMKLbu+zM0EzPPJquiQnXQOl20fhX87ubAPsOr7FrZtfBn+KhEZxOJV73O1kKEcc33QBp5ezkKcS6C2VkHa1BXlIaaGSqIFCzEBS7gH9EbLCmPt5t8SRSmJuFBxNYcZeca0vouRlpiMHGdf+JUrBo49uqGVQTEl+D0hBXktuqNXeYCyNgPQs60W5+PPwVSE1oZipq8iCcs1VroG8feS3xOQktcC3Xt5lOVXvR4DeraF9nw8zhUr0WfMaLj8PA9+zZqjY//RmPN1DvxHDEQ7a+H8uygR0Ze5sWrCvjpz4pF5kZ0rXMuCuCrm+bPExhNe5Ykf1iopmrq2gNEtLaBWqyDR6h2u4XOtqH0s+2DMaBf8PM8PzZp3RP/Rc/B1jj9GDGyHGs1z33JtxRxq/jXmzrP3xncBZZ8xGO3yM+b5NUPzjv0xes7XyPEfgYH6i1j79ZoH7phX85j221LqJp8YuuwknLtsi0f926FsFrHqi7e2bcT/2aeY1vkdsTmkIiX4NT4Z+a5d4N+sXFZN925oJ5hb3MbCvgqY58P1pgRaNhFZSCt2J4FSqWD/6ilEIbOlTedgzBzbpnzweiwaobWncJ1ECZWqoqEtIWUnkz4BZe7G+F6jsfNOWwQEdEaHgHEY/swpvDX7vHAuQ2IJS6mxx+owqw02YplM0HgZEn3Td1NYyALVBp2DZ2Jsm8onWDRqjTKxLNm4jH8K1DTGIhbMzGiyymaTWEqZIZkOtDVWFQYKjUpG8MyxqDwcCzRq7cnaSNQ3BjacStSssQqYIavZ6+xJAikzbHm/rMDRTxzClpEqsuoTirBLXM7aIGH6kJb3rcvE7vG9MHrnHbQNCEDnDgEYN/wZnHprNip6iUwuK5u09Eil+i1i/2PFyO7x6DV6J+60DUBA5w4IGDccz5x6C5XcTMA8n7ybYn3lx3Qoq854ojKIxWvtZKiIeT4oYzEm7C5Fwuwg/Hk3bGwqVSV9WxoTg+GZs3LE84yYvkuMiqnkQxKlEgpBz0XGAK3sYyym9KrU6bRVvbaOFCGR3dBrH+kFb3ZT3CD+XsSKBHZm5dTCdG4cOPSpxW7AhzgV+xR2fBGBg98dxcZZX2D1yiFYF8V0VqGYr4iYvswbuwn7mhmP+hxbc+o3z58lzCnvdsvq5W7wXCtqHzsM/PAUYp/agS8iDuK7oxsx64vVWDlkHaKYbDWY5z7kWv2JlXOouTY3e569R77LLsKHp2Lx1I4vEHHwOxzdOAtfrF6JIeuisHucEl/Vax4wo+aJY1KY9NtyTMk3TqE/o2Yb1kgxmweYXi2rm0REdS42h1SDIZ6Fv6tiho2rUlHv9w6pK1q5K3DlXBKyywZfiPMX0tmAGZZN4e6iRl6+LboHj8bo0cbXqAG+8PT2QcvSOxdtBlJSco1/68lNROLvlvDw9sTV3Wux83pfrI45g//u2ICV86ciqEkx/mL91agwppxyRetwqU5t1IxlU3e4qPOQb9sdwYJMo0ePwgBfT3j7tCx/N9AUbFIvg+nR3UWKS4mJwmIaI/nxCfgVzeHmXjUZVMQSTd1doM7Lh2334DIdjx41AL6e3vBpWfM72ubQILLqsWwB75Zqg69cL5OxACnnf2eBJqC/GaAiFN4p9+iiq1eF8+snZ0V1V4fu0m6s3XkdfVfH4Mx/d2DDyvmYGtQExZWcRIvLF35FuafmICEhDVJ3L3haXMLutTtxve9qxJz5L3ZsWIn5U4PQpPgv5oFVi7G6+qQFGru5wCY7FecrLCgpSd6IyaMWYP/PO03LIBavutrIUJF75YNaZKSkVNB3Liv+foelh7fwDqGAaJ6BiL6lcG3lDsWVc0gqVwwKz19AukEx7DiTT3qJ5aXKAYqEX4Hmbu53FUd1QffnYWyKuIgmTw1FgKJhdCp1ZfErvcT0drOC/fIRbxw43C1vIGbHauy5+igmLAzD3lOpuBy/Co/nHsK2g1eF86sipi9zx16zfT2vmhOPd1MpzuvszzXREDapODeJ28f1rxjsWL0HVx+dgIVhe3Eq9TLiVz2O3EPbcLCmRWV/S65t+Bxwb3xXhxsxO7B6z1U8OmEhwvaeQurleKx6PBeHth1EZkY95wGFmTWPOehE5DNpw5qxaOwGF5tspJ6vsPCuJBkbJ4/CovN2pnWuEplDKiFFqw5toEo/g5gKvvpXTAyShXdkRW1cTWKtrR/VETs8ze6E7Y4ux6ubz+K2tgDp37yN0F1XhIHaIjBkKBzOfICXl36Py4XMLf6MxqpxT6L3kMU4kWc4iVX2N3Fg6WzsvpAPbd557HxjIfZJAjF6SBPIWUkvKfoTaWm3WJta3Ph5E6Yt/Aa39HdIwurDu5DIoZATcm/dMihc/45ordswhW0gQoY64MwHL2Pp95dZK1r8Gb0K457sjSGLT6BULFNI5ArIKRe3bulH2BhBIQOhjlyKqWExyGa78n/7CrMX7EZet5F41ruGO1AB28AQDHU4gw9eXorvjUpG9KpxeLL3ECwuU3IdaQBZjTRC4NgRcDzxHl7dEItb2kJkHApF6M5M1qIRC40rXO2u49iu/UhjYhRmfItFqw7jthC7dZdTArlCDsq9BYO6q0P/rpykCH+mpeEWc17tjZ+xadpCfHOLjaPMSQi3Di7Dm3vTUKDLxbltr2HhARmeHj0Ij1jo7z4lKPozDWnGBvDzpmlYaGzgrm+WqKtPqvuMxBCnaHw8dwuSctgEnZOELaFL8NnPObBtrBCRQSxeaydDRe6NDxJuHliK2bsvIF+bh/M738DCfRIEjh6CJpUynHieEdO33dPjMNzuKJa/uhlnb2tRkP4N3g7dhStGxaBxUAgGqiOxdGoYYowBiq9mL8DuvG4Y+aw3m9rZ/HD+MMLW78GZCgVfjRTfxB8pSUhKYq/4n3Bs9yq8FDQB20qewaK3Ag0fOTeIThsHIWSgGpFLpyIsJpvlw3z89tVsLNidh24jn4W3TILf9i7B1GmLcCiD9cHO+OvyH7hRZA8XF1tjG9Ugpi/zxm7CvnJz4rEqVeO87v5cE/W2SZW5Scw+baS/Ye+SqZi26BCM5vkLl/+4gSJ7F7jY1jTN/z25tsFzwD3xXQtIftuLJVOnYdGhDBb9epVexh83imDv4gJbs/zO1DxgZs1jDham5ROzYY2o+2DkECdEfzwXW5JyWM2eg6QtoVjy2c/Iaf6saZ1bis0hldEETUJIsxNYGDILnx09iR92vYPRr+1EFgk3eWI2Zom14NwBhIV9jbjSr1ERnr2992iv0/GF/am50oJkchnJGnejsUPbk1p4uFh/PGppEHlYWZCFXEkKqYSUzfvR/Mgs4wPbhtWldtT16QBqyq6XyyxI4dyb5hzMNBzX3oikuV3tSWohJytrJcntO9KopXMoUKOhweFZVKxfUKZqTi99W/5Qtf5B7GPTvUhhqaBGHd6g41dMt6E1POiuoqYTDgqLCIgKf3yDvFXdafmvpY8536LNQSpyHLvPsKW9HkVLgzzIysKC5EoFSSVKat5vPkVmGZ+A1j9UrWo6gQ6WNkjFFDffl1S+842bd47RdC8FWSoaUYc3oliDVylywZPkopKQpVLN9KQk54DpFHHRsOxABCZB1FIK8rAiCyajUiElibI59ZsfSYbh6HWsakoTygdDxXHzyVflS/PjxNs3KWstvi2B6CadXBFEbgZfkTNf6UJBvZxJWeorVEiJ64aRh8qCpEwHSrUbBc2bQo9ZlT4gLyKnCe4cm05eCktSNOpAbxzPoLX9VNT8pW+pzGu0NyhybleylzIZraxJKbenjqOW0pxADWkGh1NWsX4hgZpaDRpLfZoqSKmUkYXMiQLe/JauGPrW0o3IudTVXsr83IqslXKy7ziKls4JJI1mMIVnFVdeUCbi1zWLo6XsE8tooJuKLOVqUrF4UbkNpHd/vCkug75Rk/EqJoMpJdfWBwvpxze8SdV9OZWH2GYKUjnS2H36c/QxqSS7rk9TQFPmK2ysFgpn6j3nIGUa5KjidyJ5RlzfbPzHF1L/5kpmV9afrDF1GzuU2qvLfe9q5AJ60kVFEkslqZl8SucAmh5x0bgwiJHz2SBSyDpTaLypmDIuKGM5Wz8FsZeEtScnGydv6hW8gL7+tTxGRXVaE1V0o70aSQuedCGVxJLFFItfpTMFTI+g0tRSnPoFTfDRkCWTq5GNisnuQP5T91Ba2QqP6hDXl+mxi9lXzJeNC3NUzV+iiqm/UpxH3RH157vydOGP9Ia3irov/7VsgcutzUGkKl39LSaXaK6tPDdFFYrZp5hSv5hAPhpLNi80IhsVi1kHf5q6J618AU613ONca1hYVSWHmmXzWs6z98J3i1Ppiwk+pLFkbTayYTlURg7+U2mP/qJ6zwMMk7moer+tCdPyidmwZrTZJ2jZQDdSsdyjZj5loXKjge/+aPhmGTGdm55D9CFQvqBMT17CZzTpcQ/SKGRk7exPIdOGsRjtQG+dMTYo1t+1dQNYXi33EYn+H2OZe38oyErG2dQ8OLR7FB6au+8otbfTEJ+YgVyFM9r5eMK+9EnmGxvwVIsFcN6Tig/bn0f8FQU8OraFk1I4rofdWaSfPYv0Ag1admyPZmphvynYNWmxZ/GHzhk+nd1hizq0IYoWt9PikZiRC4VzO/h42pc/oG0Gupw0xJ79AzpnH3RxN95plmSnIu5cFuDUGj4tG9eqPaZkpMUnIiNXAed2PvAsU3JDUD9ZK1J0LQWxv+bCsX17ZL7TEf1PT0T+/2YKR9nxP88j9vxNNGrli7ZNDA8WVaZOcuqQkxaLs3/o4OzTGe7VvuvBzkk/i7PpBdC07Ij2NTiJLjcdsXGXIfPoBJ8q5+hy0nH2bDoKNC3RsX0zlB/V4cqaJ+GxzB13Lm0QdtXDJ0uy8VtcEjK1jmjt6w2HMhWYJ4OpeK1ZBjNoMB+8gQ1PtcAC5z1I/bA9zsdfgcKjI9pWSgx3U2Oe0WOOvguykHw2FXkO7fCoh+buj8CY3lPjziELTmjt0xKN6ypebWgQnZYgOzUOxtTig5ZVB67LxeWkBPx2ywIOXh3RpolpPZchpq8ax26Ofc3z5crcHef18ueaqI9Nqs5NBqWZto8u9zKSEn7DLQsHeHVsA3PN87fk2gbLAaXcC9/VIfdyEhJ+uwULBy90bNME5VfVfx7QYzIX1QYR+URtWCNMr7/FISlTC8fWvvAun0QYIjpniNV8enRZiYi+YgufTi3KFkAWHp2K1gMT8er5o5juUnqdif5017B+2IvA+q/xf00scN+L2zpTVtz+jo1PmxmxnIeEIvz4eoe7Eu7DSSGiZz+K3t8EoeDcvfv1loeH8uLn941PV5h4OA8H3L73l39TruU8KJTEzoNf9y/QYfMRrA/2hOJGDD4aMwhvZr6I/8W8g86VFpJVT8GpUASHt8bqdSPRgtXC1ZfRDyISCSwsWTUutuKH81AisbCEpcVDbvvC43jV2w4B71+Cz3PDhJ0c00gMvmHB8gLPDA8j3L73m39FruU8UEg7TsXy11xxbLwXNGprWDn1wDvpvbFy4yyzCls9yq7zsSfMWNjq+ee8c8vhPPTk42rKeVyWOKO9tyNq88ERh8PhcDj/ZEpupuHcr1kotnFDm9ZN6vVoEC9uORwOh8PhcDgPDf+cxxI4HA6Hw+FwOBwReHHL4XA4HA6Hw3lo4MUth8PhcDgcDueh4eEtbnN/xKczF2BHck0/NfV3kIsfP52JBTuSUdOo8k+tx8x524Wte0eN/WjTsX/Z65i5+iiuVfdTIg8i+aewfuY8bE+qqlUt0vcvw+szV+PoP0aY2zixZibe2XNB2P6HUJiBhOQb+KdomcPhcDgPLw9tcavLi8dXn2xA5MUHqLjV5SH+q0+wIfJijcVtUcZPOPzdWWHr3lFTPwUnV2PW0kiQz6Nw/Kd4R1EGfjr8Hc5mlf5opEDBSayetQzfoyM6/1OE0eUiLmINwo9dEnb8A9BexKdD/DBmewYvbjkcDofzt8MfS3jA0Dy/CYmn7/2X91ffjxaXrtnh+XXbsLiPRtj3D0DzPDYlnsa7fSt/eZb20jXYjVyPLxb3Rs2/fs+pN5SLa3/m8sKWw+FwOA8E9624vf31K+gVshJfLB+BTk5qyBT28A6cg/0Zpe+2FeHi/vkY6tsM1jIpVI5tEDhjO87lC4dvf41XeoVgeXgohrR7BEq5FZp3n4wvkxOxbXIvuDaSQ27nhYFLonCzbJYlZP+4GEHedpDLbeD22ESExeYIx7KxZ0ovBM+dh+Ft7GFl74tZx/KhyzqOFcH+aGEjh1TpgNYDZrA+CoRrRNBdw85JPTHo3RgmjUBJPD4Y1hMTPv9D2MFGlf0jFgd5w04uh43bY5gYFovSUen11KN/qLDFLs84hEXP+8NVo4BM5YB2z7yNA4LOdNd+wPtjH4e3oxVkllIoG3uh78vbkFxoOKy/GIcWPQ9/Vw0UMhUc2j2Dtw9ksBL27n6KLu7H/KF+CBj7DpZMfAK+gTOwvVT5gu5XfrEcIzo5QS1TwN47EHP2G9uqSt7Rt9Gvx3hsyahQ7hSdxrKgXpi8M0vYUZF8JH4+FX1b2UGp0KDlk3Ow9aOX0GvC5+yYDtd2TkLPQe8iplypiP9gGHoajjP04+vRH6FRwgm6LBxfEYzuff6DRYv/g94dB2DGl8kwWvE2vn6lF0JWfoHlIzrBSS2Dwt4bgXP2o8wV70KHrOMrEOzfAjZypmeH1hgw40uUucXt0/hkbE+0crBifmYLF78RWBx5tcZir14+VqorL3sWA9YsBiZizcpJeGzER8JxkbFm78GUXsGYO2842thbwd53Fo7li8lnwv66TGybNAYbUgqRGh6CnmM3I43psX4ycjgcDodTD/Tfc3s/uB4WSEqlNbk/MZe2Ho+h6P2LKbCZjJqO22c4nndiNnVQ21KnCR/TwZPRFLl5BvV0kJPb+L10TWtogAIVMlK5DqDQiJMUG7WWRrjKyKaxC3V5cT1F/hRNEbN6kEbZnZanlJD26lrqJ5eQpZ0fTdkQSaeittPcPk1I5jaRDmSz9rRXaW0/OVmoO9JLW0/Qid27KCrzLK0I0JBd55do7aFoij35FS0Z7E7qlpPo0E3DME2jvUQf9VGR25TvqUDYRYX/o9e8VNRzRWpZnxJLO/KbsoEiT0XR9rl9qInMjSYaBiXoyXGs4W8qjKVF/tZk6zuR1h2JoTNHw2h8ByvSDFhDv5dcp13BTqRsNZI++jaGEhKiaf97Q8lNpqGhW2/oL6bYRf5kbetLE9cdoZgzRylsfAey0gygNb+XVO4n7wTN7qAm204T6OODJyk6cjPN6OlAcrfxtFevfL3ulUqydn+C5m49TjH/396ZwEVdrf//M8PsKAwQiKLsgitEImkmLmlSct3KMlx/Wf7VzKyroS2AiWBmlpWmpFJJllupud0kNSjFsEAWAUNFChQXlFhkmZnnf2aBAQRmwOWa97x7TfLdznm285xnvvM9M0m7KTKoE4k7TqNdpfomGlC8hZ59QE6PvJtNKsOuysMvk0e7IfQh67sxZYfnkbfUlvrNjaXDxw7T568OICdLGUkGLGdH1fTXR0NI7jqbfjQalX5+zYvkuuMMnXwONHXXDbZRQ+nLA0lp04dmrNlHSSlH6dulo8lN4UkzdU68QjFBMpK1c6PHFm2iI8nMbpFB1EnckaY1qQxrMX05BSptqM+MNbQvKYWOfruURrspyHPmPrrG+vv1DWbXblMp5lAKZfx+gN4f60ySzi/QvjJDA/WpSW85xurFUFOUxr9MXtIH6NF/f0GHkxJoS1gQdZEISdT9dd3xlmXVhqB2XAhJ4TuDNiUm0ratCVR4suVrWvZ/KaXtjKSxrmLqMjqcYnam0jVTOnI4HA6Hcwe5q8WtVBJIK89pK1UtVXRkrgfJ+kayv0tp23N2JO8fTVl1tY+aCjeOIqViKH183lBgSSW6IlF/SiUdnOlMYpeZdFBb0zDUhZ/QY7KONH3PDf0kLpXRo+/l1BVY6oJ19IQVK/6+ZMWfrtCUkmzYaiowiFQZP4tcZP0omhXHdVyJo6dsrWhU7CXDjhYwq7hlfT76HuUYhaJ1T1iRcuyXpC1J6xedVUfmkofUh948UaXb1lL2YyRNnP4JHa8oouObV1HsT5eYpQxUJdC8rjLqG3mKVFVHaK6HlHzePMEsbaDsR4qcOJ0+OV7ZoJ/Sbc+Rnbw/RRuNz2y5kUYpFTT04/OkNtg+cOW5ur50ssn6UuSperaq42/aObUjSftEUFqNdrucfpjpQtZBa+mvOmFrKaNvJ9uTjPm+zuzq8/TpiPZtK24r42mWi4z6RRsLa3YCxT1lS1ajYumSrriVkiRwJRlDUWsrvd1uppLiZ7mQrF89+RhX4p4iW6tRFHvpBu0IsaX2AyPp9+v6BlV5P9C61bsoo4la2WSMtVjcXqOvx7O+hq8m7ZDQc5W2POdAYl1xa0pW1rxhXAxbXWDwpelrasdes/6vSaOIPnLyeet3VuqboSOHw+FwOHeQu/rMrUDpDk/H2i6FUCrbQ6CqBlRnkZ5dji79B8LdwnCYHXcIHIAe6hyknarR7xJYwcPLCfpTBFC0k0PU0QVdxLodECoUkAvUUNV+vGzhgn4DXA3ns+MOD6OvRyWy0k8bHhsQwMbFBbY6kdQoTE3HBVU21o7zRa9evfSvQRFIrLiB05m5xkcNbgkLuPQbAFejUHi4rwcqs9JxukEHGhRnnkKB9UMI6Ckx7AMsh76JuPUvIUDugIBnJ8O/ZAeiQ2djyrhh8O8xGqtz1dBoNFAXZ+JUgTUeCuiJuqsth+LNuPV4KaD+s6kqnE3PRnmX/hhoND4TKxADeqiRk3YKOusLlHD3dKx7jkWoVKK9QIXq6qZ+4K49hk8IhkP6dnydogLKj2DLnr8x+Nkx6Ng44tTnkZn9NxwferieTZwQ+Gg3mPmT0g1QF6Yi/YIK2WvHwbfWh70GISKxAjdOZyJXZ2MBlO6eMIaiEsr2Aqiqm/CwuhCp6Regyl6Lcb617fXCoIhEVNw4jcxcIYZMmQzn396Gf6fO8B0+GQu/K0XA+JHo2c7QRh23GGOqP5CWVQGXvgHoVGdHJfr36wndEDApq6F1gQ1cXGz1vjT7GnP9f7fGEYfD4XA4TdO41LijCCws6gpNPQLDv9VQsxpIJG5YzggsRKzA0UCjNkygAjHEhkK2DoGgUZv1EUMirq8ia0+7WfeLw+xa1ketFFVVbNq16oOQBaEIDa19hWFFTCyin/Ewu9hqON0z+Rv9wrFYIm5geJFeqEbXATXaKl1kAXGtgPXRFGLb8/7wf+Yd7EgthtQ9ENMWh2O8s6HlGhUrM0SwaPLihlTrjd9QP4EFk4t1o1Hr5WLbzH0NaKllxZAQjOlyGju+SUJx/FbsrxqOCaM6NB1wJGB9WdRrj71xUcgbtt/IOBrNzfbSUVXFoskKfUIW1PNhKMJWxCA2+hl46JTU+t1cZaqgD4sQLKjXXmjYCsTERuMZ1qDNiA9xLGU/1s4PhlvZMax//WkE+I3HxrM3P8R7O2KM2JuXpp/nNS2rDq0vRbUKt+IaM012u8YRh8PhcDhtocla464jcoGbswh/ZWTUWwwGVKSl4w90hqtb44rWTNQFOP1HmWGDUZqO9DwR3LyammAt0NHNGYryClj3D8HkyZP1r4kj4OfhDR9Pw52uFtEWAITqqhvGwqv6Ii5eqV+KqFFw+g8YpSpFenoeRG5ehsKrFiHsXJ1hVZyLnIvG61VZ6zFrYjh2/7YFa7ZcwdBVyTjxn2/w2YowzAnugJq/2bms+BHaucLZqhi5OfUWNqmysH7WRITvuWDYoUUEF6a36K8MZDQ0PtL/ADq7uqFN1pc+gufGueP83jisiDsAPPEcRtoajtXHogu8PRW4cCoTRjNVIjvnLLOUHm0hStVVuGE0Ki5evNJkgWfR0Q3OinJUWPdHSK0PJ0/ECD8PePt4Gu7StwKLjiw2FSivsEb/kNr2JmPiCD94ePvAU3kNyd+swvaLD2H64hjsPJaLgrSVGFS2D3F7LxoaqeUWY0zUFb27y3H+RDKMIfE3kpOz9HfXTcnalPJtueYmBPUK3dsxjjgcDofDaTv3yDxjh+BJI6GIj8KcmGQUq1htdeZbhIZvQ3m/CXjau/l7sy1C17E3+g3szKuEpuwU4l5bjD3iJzF51ANNKm4dNAlj7U/gg5ei8GNBFatDLyNp5TQ8PngMIhPLdedUntqDmJjvkFqi22yIUAkXFxtcObwVu/PY9VX5OLBkJfaX1L/HSLi+Nxpv7MxDpaYMp+Jew+I9Yjw5eRQeaCSUYsgEjHFMwseLvkBmqQaa0kx8EbEUn/9WCms7KUSCalzOy8N1Vuior/6GDXMX4/vr2jtnldqLMWGMI5I+XoQvMktZvVuKzC8isPTz31BqbWPoQY9d8CSMVMQjak4MkvXGx7eh4dhW3g8TnvZu4c54S0jQ97mn0e3sRqz4XoInJwxHe8ORhrRH0NTxcEh8D698loLr6irk74tAxJZCQ3ErhNLFBTZXDmPr7jztfUbkH1iClftLmr5zax2ESWPtceKDlxD1YwE7W43LSSsx7fHBGBOZCL0XW4M1giaNhf2JD/BS1I/Qh0USVk57HIPHRCLxhgBndi7FnLlLsC9f+zUVKvxd8CeuVtvC2fnmLyAzJ8aaR4ngmZPQKXExJr3+OQ4d/Qlb35mM17YUgQTa8tKErE0235ZrGiGQQCohlF2/rvv+ZnN0VOXsR8y67ThR3NRbFA6Hw+FwbgHDs7d3HO0CJnnH6bTXsPhLu6o9NcyP5H5h+k31RYoPf5yc5QKykClIKpKRU+A82nFOtyJJv6hF3pGm1zVQRb/M9yZ5/2X0R+26lesbKViuX1ikWzij6Eqjpg6hjlIZycRCEjsG0hsHLugXxegWd8mp84wDxsVf7MiVhCgKdrckoVBCMqmIBLLONCwsnooMK2kurR1BUnF/WlbXaUOqMtbSOHc5CZn8CqaHa/DbNPtRy3oLyhTUddRUGtJRSjKZmIRiRwp84wBdMLTf4FsMmDzFidE00lVOFhIFyZkOcteR9O4v19ihqxS/6GGyFQlJYtmOZBJb8p0YRQuDlKQcHauTV12cSNEjXUluISGFnPUld6WR7/6iWwHfuJ+L8eH0uLOcBBZMbqa3zCmQ5u04p1sgdLPtmfdSw8hP7kdhqQb/NEVNBi3pKyGR+xw6ZLy0Ca7R0eXB5CpjPpJISGzXl4IHOpGsdsFYVQatHedOciGTS8Hkcw2mt2c/SpZNflsC0+ZKAkUFu5OlkNlGJiWRQEadh4VRvM6J2gVlcuo4fS8ZQzGVwvzk5BeWatjRCPUVSogKJndLIQklMhabApJ1HkZh8UW6WKrJ/Yqm+yjJgtmuvZWcxGJ7CpiznfKaDBETMWbi2xK0i/PSP59Jg9yVLA7bkVPAJJo7zoukvd/UHzYhq25cyDvTjAPGqDd1jWn/36DD85gMFlJq33s+JVSZHkeln49i8vehCP2KQw6Hw+FwbhsC7f8Mde49gao4F6mnigDHbvDxtDMuhmozGpSdT0FqgRjuD/qgk8KwuyXUJchLy0B+mRROPX3gYVtPCs0lrBv3IrDuO/y/Ds3c+K6+jJyUHFxr3xV+PTqg4U8L6NGUnUdKagHE7g/Cx5RQqmKcSc1EodoB3fy8YV8njgal50/i5PlKKD190avJdlQoPpOKzEI1HLr5wdt48c2wfnJTT6EIjujm4wm7WzU+s9Xn47rjPe+9SHm3n0lfVl/KRsofZXDo1QuF7/hi+PEXUPHzgtqjuJyTgpxr7dHVrwc6NGXUBqhRkpeGjPwySJ16wsfD9pZjSV2Sh7SMfJRJndDTxwP1w0L7y2IFmek4c10Iey9fdO8gMxxohpZirFk0KMpIwgVrHzzYpXa1WhUOzemGkRmv4MaReYZ9JmRthrZcU4emFHkpJ/Gnxgk+fdxgrR0abdKRw+FwOJxb454rbu91Ko9FICS2G1atnYAu98hDHfci2g+bb6REYsTwvRiZ8DMW9WjNww3V+OXfvRsVtxztG5WUt/3R/6ve2HhwHUI8pLia/BGmjHoDhS/+jJR3+hjO43A4HA7nfxdenrUS2cNh2B7DC9sWUSUjrI8VbAPeQ+WL0ZjdqsJWj0BoAQths19h8D+KCL5zluE1l8N43ksJRTtLOD7yDs4PXoH1r/PClsPhcDgcLfzOLecOoEbJ+VM4V+mIHt72t+HREk5DVLiWdwp/FNXAyrU7unUw51kbDofD4XD+N+DFLYfD4XA4HA7nvoF/uM7hcDgcDofDuW/gxS2Hw+FwOBwO576BF7ccDofD4XA4nPsGXtxyOBwOh8PhcO4beHHL4XA4HA6Hw7lv4MUth8PhcDgcDue+gRe3HA6Hw+FwOJz7Bl7ccjgcDofD4XDuG3hxy+FwOBwOh8O5b+DFLYfD4XA4HA7nvoEXtxwOh8PhcDic+wZe3HI4HA6Hw+Fw7ht4ccvhcDgcDofDuW/gxS2Hw+FwOBwO576BF7ccDofD4XA4nPsGXtxyOBwOh8PhcO4beHHL4XA4HA6Hw7lvuGvFrerU1wibvwIHLmgMe+4vShJXY8E72w1bdwD1OeyKWoBVh68advzDuc/0KfvlUywI/wZZKsOORlQcW4cFb282bN0Z1Od2IWrBKhy+epvG2L3io6p8pGddxb2cOary05F1u+zO4XA4nFvi7hW35+Lx2cdfI+ny/TgBaFCWugOrYw8btu8A6kIkfLEa205cN+z4h3Nf6aNBedq3+OSzeJxrpritzv8V+384adi6M6gLE/DF6m04cZ0Me26Re8FHrMD+dIw/pmzOv2eLW/W5TzHGfwo25/PilsPhcO4F+GMJHM5dQPnsBmQcf9ewxTEbKsOly2X39F1bKruEy2W8sOVwOJx7hXuouK3Gud1hGOvXCe3EIsgduiPo1c04VWE4jBIc/2QqBnS1h6VEAmtnf4yPjMfF5uYUTRGOLA9BQBcrSEQy2HcbgVe/zkKl7mAJvnt5ICYti0XEmJ54QCaBZef+mMWOZ8TNwkCX9pBIbOA1cikSruk7KPnuZQx8LhobwkfCy0YKqdINA1+IwYkS3eGb0BQdwfKQAHSxkkAks0e3Ea/i6yx979o7fZd+eh9TB3nDwVIMCyafnddQvBSXhSrDGajIwKa5j8HLVgaJtQeGLTqIS/VvyFWfw+6wsfDr1A5ikRwO3YPw6uZTMJrrOD6ZOgBd7S2ZLtZw9h+PyPiLTRcJJd/h5YHPIXpDOEZ62UAqVcJt4AuIMSinubQFMweMwrvJ1bptLaq0DzBuwHR8+aehxRbtzTClD5Os6MhyhAR0gZVEBJl9N4x49WvUmkxn/0kr8NWy8XjQUQGx1BbeQQuxO1+tP6EJVPn7sOTZALgopRDL7dHzX29hj+F8zaWf8P7UQfB2sITYgvVn54WhL8UhS+eA1seHDirGL5HB8LaRQGLlikdZfKSU6g9p5X9keIR+w5T/i7dj9sAQLHr7KXS3tYSt3+s4XOdYIxUZmzD3MS/YMvmsPYZh0cFLaGhSEz5pzO3wUUtjRHMJP70/FYO8HWAptmDjwg5eQ19CnN7oN+v94Gy88cIUfJZdhdzYSRgwdSPy1CZsp4vlSVgWG4ExPR+ATGKJzv1nsbGXgbhZA+HSnvnGxgsjlyagznXm5IoVX2HZ+AfhqBBDauuNoIW7oQ0lTWEcZk75DNlVuYidNABTN+axa0zlMg6Hw+HcUegucWPP8+QoeYjCT9YY9jSkPDGUeius6cHpH9Peo0kUv/FVGmAvIdfnd9IlNVHNr29Qb8tuNDXmEKVk/E4H3h9LzpLO9MK+MkML9amh9OWBpLTpQzPW7KOklKP07dLR5KbwpJn7rrHjVygmSEpiuQuNiNhBR1MSaM14FxJb2ZFz3xdpXfyvlLTjdXpEKaP+y7J1LV6JCSKpREYPPDidPj14lH7avIiGOIrJ+f920lVS018fDSG562zduVSTTssDlWTTZwat2ZdEKUe/paWj3UjhOZP03W+lEEcZdZ3wER1ITqf0pN303lhXEivH0qar2gbK6NArXiR94FH695dH6NiROAod7EgigZgGLM9lx8spMbQ3KawfpOkf76WjSfG08dUBZC9xped3XmLS1NCvb/Qmy25TKeZQCmX8foDeH+tMks4vUJPmuhJDQVIJyR5g7X16kI7+tJkWDXEksfP/0U4mj/qvj2iI3JVm/1hpuICo6ufXyEs+gJbnqtiWKXub0kdrsuUUqLShPjPW0L6kFDr67VIa7aYgz5n7SGcyZn+ZrB25PbaINh1JpqTdkRTUSUwdp+3SXX8TVSm0JKAdWfu9QGsPJtOJQzH0fG9LUo5YTWdVV2hriCPJuk6gjw4kU3p6Eu1+byy5ipU0VueA1saHmi6uGUYSgQXZ+M+mz+KPUYI2PjqIyfWFPVSsbVErv8NUrWQm/a++uIaGSYSk8J1BmxITadvWBN0YaEDZIXrFS0oPPPpv+vLIMToSF0qDHUUkEJvrk8bcHh81P0a0aoeQo6wrTfjoACWnpzMfvkdjXcWkHLtJd/xmvQ/QkW8jded0GR1OMTtT6ZqpsaOLZTHJXUZQxI6jlJKwhsa7iMnKzpn6vriO4n9Noh2vP0JKWX9alm2OnbSxICNZOzd6bNEmOpLMYiUyiDqJO9K0XaVEpWm0M1IbO11odHgM7Uy9ZjKXcTgcDufOco8Ut6W07Tk7kvePpiztfKNDTYUbR5FSMZQ+Pq+mGztCyLb9QIr8/To7wlDl0Q/rVtOuDDbBNKYynma5yKhfdDbVNccmqbinbMlqVCxdMhQvkgHLSVcHMCoPziRnsQvNPHhDv0NdSJ88JqOO0/foNnUTt/RhisqsbZHJtz6YlFb/og1FNQ2K28r4WeQi60fRusnTwJU4esrWikbFsuKz6DhtXhVLP9Wb6aoS5lFXWV+KPMWuKd1Bk+zlFPh+bp386oJ19ISVRF9olG6j5+zk1D86y6gfk3fjKCUphn5M59U3aEeILbUfGEm/X9f3ocr7gdat3kVNmUtfEEjp4ahMY3+F6ylYaUX/2lBENaaKW1P2NqUPVVL8LBeS9YumhiZ7imytRhEzmaFwCqSV52ptVkVH5nqQrG+kYbshVUfmkofUh948UWXYw8q3HyNp4vRP6HhFER3fvIpif9K+ETBQlUDzusqob+QpJmNr40Nf3Eplj9J7OXUaUsG6J8iKFV1fsqKrfnFryv+6Ik8qo2GrC4zyNaJ0xySylwfS+7UC1vYnMdMnhj113C4ftTBGio5vplWxP9Ur8KooYV5XnQ+1Yd+k3jVpFNFHTj5v/c7KUNO208eyXma9FJV0cKYziV1mktF1n9Bjso40fQ/bYW6uCFxJxtA7QnM99LGipSYtgvrIfeit37USms5lHA6Hw7mz3BuPJajOIj27HF36D4S7hWEfhHAIHIAe6hyknaqBbMgUTHb+DW/7d0Jn3+GYvPA7lAaMx8ie7QznG1EXpiL9ggrZa8fBt1cv9NK9BiEisQI3TmciV/fpugBWHl5wMvQnULSDXNQRLl3E+h1CBRRyAdQq48feFm6BGOxZKyCTr18APKuzkXG6/ioiNQpT03FBlY2143wNfbPXoAgkVtzA6cxcqBwC8Oxkf5TsiEbo7CkYN8wfPUavRq5aA42GoMrLQFapE/z8u6CuN4dH0K+rSPe36mw6ssu7oP9A97rj7AQEDugBdU4aTtXIMGTKZDj/9jb8O3WG7/DJWPhdKQLGj0QT5tJj4YbAwZ71+uuHAM9qZGecRjNrpOowZe/sP1rWR7twKTX9AlTZazHOt/b6XhgUkYiKG6eRqXcYBEp3eDrWhqwQSmV7CFTGRyWMaFCceQoF1g8hoKfEsA+wHPom4ta/hAC5AwKenQz/kh2IDp2NKeOGwb/HaKzOVTP7awwf7bchPlz6YYBrnYZweLgvPCqzkH66oYxCE/7XIbCBi4ttM88NqZCXkYVSJz/4d6nX3yP9YDSpOWPAiKmYM9dHzY8RDRwCnsVk/xLsiA7F7CnjMMy/B0avzoWa2bxW7Zb1Ntd2VvDwcjLoIYCinRyiji4wuk4BuUANrevMzRVKd08YQ08JZXsBVNVNxJ4ZuYzD4XA4d5Z7o7hFNSsSAJHYMJEaEFiIIGKFikbNJi2bEfjwWAr2r52PYLcyHFv/Op4O8MP4jWdZOdmIqirWohX6hCxAaGho3StsRQxio5+Bh64bAcRiw2xXh4D1afizCQQyOeT1Lcbks2ClEJubG1BVxSY9qz4IWWDsOzQ0DCtiYhH9jAeEhdvwvL8/nnlnB1KLpXAPnIbF4ePhXNs2m3XVzDWi+uYQyCCTCvR/V7OJmVmmobkETBy2gwmjN9eHOJayH2vnB8Ot7BjWv/40AvzGY+PZm6ylh7Uvb6gcRMwWVKdcbfVhQFsE1u4yZW8yoQ+qoDdZCBbUuz40bAViYqPxjN5hzDcWdYWXntrrb6ZGW7kwBcRNnaIpxLbn/eH/zDvYkVoMqXsgpi0Ox/g6B2hpfXxALIG4fhNMYe1mnZ0MaEz5XwvryELUvH4qNdNPqB0fRgQyGYwmNWcM1MNUzJnro2bHiAaF256Hv/8zeGdHKoql7gicthjh450bJiETeptnOzHzneHvWgRsfBj+bICZucKCxV4DmhXRjFzG4XA4nDtKg3nlv4bIBW7OIvyVkWFc5MGoSEvHH+gMVzcLXE3+Bqu2X8RD0xcjZucx5BakYeWgMuyL23vTojKLjm5wVpSjwro/QiZPxmTdayJG+HnA28cTtm3UWp2fjewywwajjMl71sId3rV3t3RYoKObMxTlFbDuH2Lom70mjoCfhzd8PJVskl+DLVeGYlXyCfznm8+wImwOgjvU4G+mh7aWFLl0hZv0Ak5lFrPp0EBVDk6f199DFbkw/UR/ISPjmvE4KpCW/gfQ2RVuFleR/M0qbL/4EKYvjsHOY7koSFuJQWX7ELf3ouH8Rqjzkd1QOWSctYC7d1dWI7KCg6pRdcM4MVdfvIgrhs5N2dvBrWV9WAPM/wqUV1ijf0jt9ZMxcYQfPLx94Nlqhwlh5+oMq+Jc5NQLDlXWesyaGI7dv23Bmi1XMHRVMk785xt8tiIMc4I7oKbWAW1EXXAaf9QzYWl6OvJEbvBqUElq8JcJ/5tGBJeubpBeOIXMYuMFVTmnYTRp68aAqZgz10fNjhGPi9i2ZguuDF2F5BP/wTefrUDYnGB0qPmb9af9rznYGwrDX7fHdg25LbmCFc51mMxljatuDofD4dxu2ljmtRGqRHFeFjIzM42vU9koKLVD8KSRUMRHYU5MMorZfFpx5luEhm9Deb8JeNpbDMGZnVg6Zy6W7MvXrYpW/V2AP69Ww9bZGdaNtbAOwqSx9jjxwUuI+rGAna/G5aSVmPb4YIyJTES54bTWQtf2ICp0G05XqFGeswXzF++CIGgyxnRoKIB10CSMtT+BD16Kwo8FTFr1ZSStnIbHB49BZGK57q6OoPoy8vKus+lajau/bcDcxd/juvbumHaJts2TmPaUDQ4tewUbT5ZAXXke378Vga21P4BhF4xJIxWIj5qDmORiqFhhe+bbUIRvK0e/CU/DWyzAmZ1LMWfuEuzL11kLfxf8iavVtnB2tta30Ri6hj1Rodh2ugLq8hxsmb8YuwRBmDymA0RKF7jYXMHhrbuRx5qryj+AJSv3o6S21jVlb1P6wBpBk8bC/sQHeCnqR+hNloSV0x7H4DGRYCZrNYohEzDGMQkfL/oCmaWseCrNxBcRS/H5b6WwtpNCJKjG5bw8XGciqK/+hg1zF+P760w3nQPaBl3fi+g3diKvUoOyU3F4bfEeiJ+cjFEPNIwPk/43A5snp+Epm0NY9spGnCxRo/L893grYiuMJm3lGLhNPmp+jEggFglQfTkPeXqj47cNc7FYb/Tmv8FBIIFUQii7fl33eMztsF0DbkOuEEikkFAZrl/XSmgql1mw4ZiD/THrsP1Esb4BDofD4dxeDM/e3nF0C8qEus+2G74ESnpuW7l2NQnFhz9OznIBWcgUJBXJyClwHu04Z1iAVpNLX033IaWFBcnaW5FcLCb7gDm0Pc+4DKQ+6isJFBXsTpZCIUlkUhIJZNR5WBjFF2kXdGgXicip4/S9ZFhjQlW/zCdveX9a9kdte9dpY7CcHKbqV+PrFgTZPExPBnYkiVhCYqGUnAYvpL2F2vYafVsC276SEEXB7pYkFEpIJhWRQNaZhoXFk7Z79dV4WvSwLYnYMct2MpLY+tLEqIUUpFTS6Ngi3WIa9ZUjtHh4Z5IJxaw/Mdn1m0pjeynqVq6rL8ZT+OPOJBcweyiYfjInCpy3g4zm+oqm+yjJwkJG7a3kJBbbU8Cc7dSkubSLcGQ29PCTgdRRou1PSFKnwbRwb6FhYU8VZawdR+5yIetHwfpzpeC3Z9OjlrUr87XytmRv0/qwEyghKpjcLYUklMiY/wUk6zyMwuL19tDaX95xOu2tdRjVUGqYH8n9wgzbjVFTcWI0jXSVk4VEweJFyPwzkt795Ro7dJXiFz1MtiImq2U7kklsyXdiFC0MUpJydCzzUWvjQ7+gTNF1FE0d0pGkMhmLDzE5Br5BBy7o9W+woMyE/2u0C6vknWnGAeMCvpthMXZkMQ3vLCOhNh7FdtRv6ljqpTDfJ425HT5qaYxcjV9ED9uK2LWW1E4mIVvfiRS1MIiUytEUy2TSLSi7Se8bdHieF0ktpNS+93w6csHE2NHGsrwjTa8LlCr6Zb43yfsvI6PrNlKw3IGm7tKf09pcQTWpFOYnJ7+wVP32jcM0z0tKFtL21Ht+AmvQRC4r/ZxGScXUJyJNv83hcDic24pA+z9WZN4zqIpzkXqqCHDsBh9POxiXA2nRoKwgE+lnrkNo7wXf7h0gMxxpGjVK8tKQkV8GqVNP+HjYNmrPfK5+9gS6hDthe+6H6JWThgtSd/j2cGy5f3UJ8tIykF8mhVNPH3jY1utdU4rzJ0/ifKUSnr690Elh2N+AShRlnURuuT16PuQO5U332VUozk2F3lw+8LRrpJ2mDAWZ6ThzXQh7L19079CMtFc/wxNdwuG0PRcf9spB2gUp3H17wLHR6dWXc5CScw3tu/qhRwepYW99TNnblD5ak+UhLSMfZVIn9PTxQH2TtQlVMc6kZqJQ7YBuft6wr2tPg9LzJ3HyfCWUnr7o1bQDWg+z+fmUVBSI3fGgTyc026pZ/jeDyiJkncxFuX1PPOSubOKjmNaOgbb7yJwxoik9j5Mnz6NS6QnfXi3Ypz7MVnkpJ/Gnxgk+fdxgjdtkuwbcWq7QlOYh5eSf0Dj5oK+b/tORlnMZh8PhcO4U91xxe69SN3GfXY8nW66o/3nUFbdnsf6+U45zt7ivxwiHw+Fw/jE0cV+G0xQCgRAWQkGDtSP3DUwpoYWQ/XM/Kse5W9zXY4TD4XA4/xj4nVsOh8PhcDgczn0Dv3PL4XA4HA6Hw7lv4MUth8PhcDgcDue+gRe3HA6Hw+FwOJz7Bl7ccjgcDofD4XDuG3hxy+FwOBwOh8O5b+DFLYfD4XA4HA7nvoEXtxwOh8PhcDic+wZe3HI4HA6Hw+Fw7ht4ccvhcDgcDofDuW/gxS2Hw+FwOBwO576BF7ccDofD4XA4nPsGXtxyOBwOh8PhcO4beHHL4XA4HA6Hw7lv4MUth8PhcDgcDue+gRe3HA6Hw+FwOJz7Bl7ccjgcDofD4XDuG3hxy+FwOBwOh8O5b+DFLYfD4XA4HA7nvuGuFbfqP/fi3fmLsS1HbdhjpPq3WITO/wQJ1w07OCapyk9H1lWNYasxFTi2bgHe3pxp2G4rzbejPr8b0f9egFWHLqE5Kcym4hjWLXgbmzNVhh23l5LE1VjwznbDliEW/z0f7x8oNOxpjsb6VyE/PQvNmv2e51bjQo1zu6KwYNVh3VbFsXVY8PZm3d8cM1Cfw64oNmYOX2Ubt2uM/hdooAenLbScv9uG+twuRC1YhcP3fIJqmEf+a1TlIz3r6q3PX3eQOxEnDSlB4uoFeGf7acP2/cNdK27p4i+I+3gDDv15cwGjytmD1R9vx+9//2OrhruK+tynGOM/BZvzm7NXNfJ/3Y8fThYZtttKc+1U4uiq1xEVT/B5yOHWg6g6H7/u/wEni25+43PraFCWugOrY2sTaTWSV4ci8kA1fAIcDfuao77+LCF/Ogb+UzajWbPf89xqXKhRmPAFVm87oduqzv8V+384qfubYwbqQiR8sRrbTmjfxd+uMfpfoIEenNZiOn+3DXVhAr5YvQ0nrpNhz71KwzzyX4G9Qft0jD+mbM6/Z4vbOxUnDdCUIXXHasQe/suw4/6BP5bwD4TKLuFyWUsBr8SzGzJw/N2hhu220kw76r9wyeZZrI2LxBClYd+toHwWGzKO492hUsOOO4i6AEXWT2HN5mUYbmsq/OvrTyi7dBktmv2e53bFhR7lsxuQcfxdwxanddxeX3D+OZjO35w7DpXh0uWye/quLY+TW+MeLG41uPTT+5g6yBsOlmJYiGSw8xqKl+KyUMWOlh96C8MeeR5f1H83U30c0cEDMWtLc3dBWJtbZmLAqHeRXG3YBRXSPhiHAdO/1G2VfPcyBk5aga+WjceDjgqIpbbwDlqI3fm1dxNblqtZirdj9sAQLHr7KXS3tYSt3+s4XMFaKzqC5SEB6GIlgUhmj24jXsXXWZWGi5g8xz/B1AFdYW8pgcTaGf7jIxF/UQNNYRxmTvkM2VW5iJ00AFM35rEuZmNgyCK8/VR32Frawu/17/Hdy49geESCoTUV8vctwbMBLlBKxZDb98S/3tqDWtVU+fuw5NkAuCilEMvt0fNfb2GP7mBJo3aqcW53GMb6B2LqO0vxwmN+CHp1M04xfbSYtmEzlHyHlx8ZjogErXO0fQ7EpGWxiBjTEw/IJLDs3B+zvs5CRtwsDHRpD4nEBl4jlyLhmjYG9Oc/F70B4SO9YCOVQuk2EC/EnGBHmkB9AekJ8fj1TF0gmKH/ERTGzcSUz7JRlRuLSQOmYmMeO665hJ/en4pB3g6wFFswP9rBa+hLiMtqMSIYFcj4cg6GdrWBTKqE5+MLsemjGRhoiEXNpS2YOWAU3jUGK1RpH2DcgOn48k993JuKn6ap70+DnVd8hWXjH4SjQgyprTeCFu6uiwudnJvm4jEvW8gk1vAYtggHLxnvCmn9/cjwCMNWS3bU6vQT3p86CN4OlhBbiCCz88LQl+Jg0lQt2sr0uNbSJltpY3LgJKz4ahnGP+gIhVgKW+8gLNydj1rzmNSpIgOb5j4GL1sZG8MeGLboIIzmq+8LLRoUHVmOkIAusJKwtuy7YcSrX8O0S7VyPofoDeEY6WUDKbOR28AXEHNCH/3mxBIzEI4sD0FAFytIWF6z7zYCr7LxVtd1i3poaYPsJcfxydQB6GpvycazNZz9xyMy/iJrSU/LPivG9tkDEbLobTzV3RaWtn54XZtUm6Ai40vMGeoFW5ZH2rE88sLqFZj56Hh8lGH4BLFF3Zvpp8VrWh5XTeXvNtmPUZGxCXMf0+tm7TEMiw5eYm/BjbQ67lk+2zJzAEa9m8wyvQFVGj4YNwDTv/yTbZiTM5qi5TxiUn8TMa69vuW5uZEfbXph5KhJ+Cy7CrmxkzBg6kbkqU21YdDd7HmJYWJctTRfNh0nhvnXrxPaiUWQO3RvMP82TRvrlgbcag5uS34wnX+rz+1G2Fg/dGonhkjugO5Br2JzfWPQXaLm10XUS+JIT69OpGPHjjV4/RQ5lOSSQfTBeTXRla0U4iijrhM+ogPJ6ZSetJveG+tKYuVY2nSVNVS8hZ59QE6PvJtNKn3TVHn4ZfJoN4Q+PFu7pzFq+uujISR3nU0/Vhp2URX9/JoXyQcs121diQkimawduT22iDYdSaak3ZEU1ElMHaft0h03KVczqC+uoWESISl8Z9CmxETatjWBLlWl0/JAJdn0mUFr9iVRytFvaeloN1J4zqR919hFNb/SG70tqdvUGDqUkkG/H3ifxjpLqPML+6isNI12Ro4lV3EXGh0eQztTr9LFNcNIIlSQ74xNlJi4jbYmZFNMkIwcpuplr0pZQgHtrMnvhbV0MPkEHYp5nnpbKmnE6rPag7QkoB1Z+71Aaw8m04lDMfQ861s5YjWdVV1p0E55Yij1VljTg9M/pr1Hkyh+46s0wF5Crs/vpEta15myYXNciaEgmQNN3XVDu8H6lJJY7kIjInbQ0ZQEWjPehcRWduTc90VaF/8rJe14nR5Ryqj/suy68yWyB5hcn9LBoz/R5kVDyFHsTP+3U+sYo+91VO6jF5zkNGLtJf22mfqXpu2kSK2/u4ym8JidlMr8dGVrCDnKutKEjw5Qcno60/c9GusqJuXYTdRCSFDZ4XnkLbWlfnNj6fCxw/T5qwPIyVJGEkMsqv/6iIbIXWm2MVip6ufXyEs+gJbnshivMRE/zVLfn/q/Ze3c6LFFm+hIchLtjgyiTuKONG1Xqe7sskOvkJf0AXr031/SkWNHKC50MDmKBCSuP2Ycpur+NmXHrSGOJOs6gT46kEzp6ayv97QxrKSxLQ0eRsu2Mj2u22wrXUzKqJ3bY7Ro0xFKZuM9MqgTiTtOI715TOlURode8SLpA4/Sv788QseOxFHoYEcSCcQ0YHmu7vr6Y6smfTkFKm2oz4w1tC8phY5+u5RGuynIc+Y+atmlTE6phGQPPEjTPz1IR3/aTIuGOJLY+f9IG/4mY4lqKH15IClt+tCMNfsoKeUofbt0NLkpPGmmzkCm9GiL7DX06xu9ybLbVIo5lEIZvx+g98c6k6TzC7SvTHvYhM/UF2nNMAkJFb40Y1MiJW7bSgnaBNSY0nh62UtKDzz6b/ricBIlbAmjoC7sOlF3ej2pip1gQvcm+6kyYS8T4+qm/H2tbb4vO0SvGHT78sgxOhIXSoMdRSQQ30KOUP9FHw2Rk+vsH8k4nH6m17zkDWK2pZzRFKbyiEn9TcS4ybn5Jj9+SbFfvKPL1V1Gh1PMzlS6ZnJ+1+remnnJ1LjSqtXCfNlEnJiaf5vEpG2MPm+OW83BbYpvU/m3PJFCeyvI+sHp9PHeo5QUv5FeHWBPEtfnaafBGHe3uBULyEIsIYmk0UtsQQJDcasuOk6bV8XST/W8VZUwj7rK+lLkKW0y/pt2Tu1I0j4RlFajPVpOP8x0IeugtfRXcw42s7iVSgJp5bnaRqroyFwPkvWN1G2ZlqtpdMWtVEbDVhcwKfRUxs8iF1k/is6ud92VOHrK1opGxbKi68YOCrFtTwMjf6fruotUlPfDOlq9K4O0fq1Ji6A+ch9663etAdS64lYqG0arC2p7qD9x6vWQ+rxJJ7T5XEcZ/Rg5kaZ/cpyqjswlD6kPvWk8SGU/RtLE6Z/Q8cr67ZTStufsSN4/mrLqxFZT4cZRpFQMpY+Z70zZsFmaKG61A0c39zIqD84kZ7ELzTyoPc5QF9Inj8mo4/Q9bEN/vvThKMqslYsdXx+sJKt/baAidcvFrfn611BaRB+S+7xFOrMz3YuOb6ZVsT/VSyxVlDCvq07f5kOijL6dbE8yZsc696vP06cj2ptd3JqMn2apr4/BzoEryeiuIzTXQ0Z9I0+xjVLaMcme5IHv1/mB1AW07gmrOjnrF7ct2rGiiI5vXkWxP12qGwNs8NC8rvq+mjWVSVuZHtdttpVhQg1cea5OZp2OteNdbUKn0h00yV5Oge/n1umnLlhHT1hJmihuKyl+lgvJ+tXTk3El7imytRpFLbtUK6eUHo7KNPZTuJ6ClVb0rw1FVGOquK2Mp1kuMuoXbbxZoJUt7ilbshoVS5dM6tEW2W/QjhBbaj8wkn7XJzhS5f1A61bvogyW4Ez6TFesSEk2bDXVpbwmuPb1eLJtP5xWa2+aGLi65TlyEBuKW1O6N9WPqWtMjqvG+bttvi/dMYns5YH0vnFwUsG6J8hKcgs5wqzitmXdbsZUHjFDf1MxbmpubsqPNWkU0UdOPm/9zjI7O8Xk/G7Qnclcq0eL85LJONGq1fJ82TBOTM+/TWFSL5PF7a3m4DbmNhP5t3Tbc2Qn70/RRmMw82+kUUoFDf34vO6au/tYgqAzXtz3N6qqqhq8rn0+GgrDKUKHADw72R8lO6IROnsKxg3zR4/Rq5Gr1kCj0X6U0R7DJwTDIX07vk5RAeVHsGXP3xj87Bh0vEVtBEp3eDrWNiKEUtkeApX+XrtpuVpAYAMXF1vDMyBqFKam44IqG2vH+aJXr17616AIJFbcwOnMXFTLhmDKZGf89rY/OnX2xfDJC/FdaQDGj+yJdro2bkZg4wKXpp4h1RQj81QBrB8KQE+JYR8sMfTNOKx/yR/FmadQYP0QAowHYTn0TcStfwkB9R+BVZ1FenY5uvQfCHcLwz6mkUPgAPRQ5yDtVI1uT0s2NB8BrDy84GToR6BoB7moI1y6iPU7hAoo5AKoVbUfUFjALXAwPGvlEjqgX4AnqrMzcLrFL2DQmK//TTDdA57FZP8S7IgOxewp4zDMvwdGr86FWsNiormQUJ9HZvbfcHzoYbjWyeuEwEe7QWTYbBkz4sdwpmkEULp7wuguJZTtBVBVsxZUecjIKoWTnz+61LPrI/26NiGnCTvKHRDw7GT4l+xAdOhsTBk3DP49RmN1rpqNHU2Dj1Ib8N+2lUAJd09Hw7jVmkeJ9gIVqquZxMwWLelUk5eBrFIn+Pl3YdFpuN7hEfTr2oTk6kKkpl+AKnstxvkaZGSvQRGJqLhxGpm5Jjxq4YbAwZ71+umHAM9qZGechqnvH1EXpiL9ggrZa8fBt9Y+vQYhIrECN05nIvsPE3q0SXYZhkyZDOff3oZ/p87wHT4ZC78rRcD4kejZzlyfCWDj4oLmH5tX4Y+0LFS49EVAJ+NJyv790NOQRkzprhe9YT/mXtPsuGpMm+ynQl5GFkqd/OBvHJxweKQf9G65nTmiMa3QTYupPGKu/i3EuMasubnleDFvfjd/XjIvTlgb5s6XZs6/jbmlukXLrebgW8ltzebfGpxNz0Z5l/4YaDQG0zUQA3qokZN2ClprNOPq/x6awm143t8fz7yzA6nFUrgHTsPi8PFwriepYkgIxnQ5jR3fJKE4fiv2Vw3HhFEdTCvTyJda59bfJbCwqBs8egSGf82Tq1kErF2Rsa2qKuZQqz4IWRCK0NDaVxhWxMQi+hkPFjQ2GPHhMaTsX4v5wW4oO7Yerz8dAL/xG3G2mWebtLLX66IeNdDWgCILcT1tjNToD0Lc5LX1qWaDlp0qbhjSAgsRk5cNFLXeki3Z0HwEEIsNCaMOgdaMzSCATC5v4H8LphOIyWXYbg7z9W+MBoXbnoe//zN4Z0cqiqXuCJy2GOHjnc2IQwFErE9jlwIoFPJ621puClaQYZfp+DEXASyYvxpQJ4QKamYaoah+a8zOMmkjOfW0aEdNIbY97w//Z97BjtRiSN0DMW1xOMabM3jMsVUL4/qWbKUdt82Zx5RO2gmORUJD88kgkzZlIPYmXydmCBbUycheYSsQExuNZzxMeJS1K5c3iH6tK1j410Z/87HEDMRGthX6hCyoZ59QhK2IQWz0M/AgU3q0TXabER/iWMp+rJ0fDLeyY1j/+tMI8BuPjSzBmeczbeyKGsZBU2hzQHNJwJTuuo4a9WP2Nc0FTmPaZj+VfnA2iF+BTIZat9xK3DeMFma/umDR0hrdtJjKI2bq30KMmzc3txwv5rZh9rxkVpywq82eL82bfxtzS3VLLbeUg28ht7WQf6v1xmgYx+x8bZhpNGpd361R8S6gwV/b1mDLlaFYlXwC//nmM6wIm4PgDjXQfktYXZKSPoLnxrnj/N44rIg7ADzxHEbaGo41g3ZAUnUVbtQ5oRoXL14xWfzoMVMus7BARzdnKMorYN0/BJMnT9a/Jo6An4c3fDyZIleT8c2q7bj40HQsjtmJY7kFSFs5CGX74rD3IutM0NwAaAKhHVydrVCcmwPtpXpUyFo/CxPD98HO1RlWxbnIMR6EKms9Zk0Mx54L9RQTucDNWYS/MjJQ+7y8loq0dPyBznB1azzo7yZq5Gdno8ywBfZXRsZZWLh7G+5kNIfQfP0ZDcyu+Qvb1mzBlaGrkHziP/jmsxUImxOMDjV/a1NN83Fl0QXengpcOJWJK3UnVSI75yzTwoA24VE1qozBiuqLFw3nm46f2zKomb+7ukl1chbXyVmFnNPnWfQ0pmU77v5tC9ZsuYKhq5Jx4j/f4LMVYZgT3AE1pgaPGbZqeVzfOVtp/trWok4il65wk17AqcxiYyxU5eD0+SbupVp0ZGNLgfIKa/QPMcjIXhNH+MHD2weepr7VQ52P7Gxj9KMsAxlnLeDu3ZUVAC3FkrZrNzgrylFh3R8htfaZPBEj/Dzg7eMJBzcTerRFds1VJH+zCtsvPoTpi2Ow81guCtJWYlDZPsTtvXybfCZC197dIT9/Asn1YvLv5GRkGW5ymdK9KdHbcs1N1E8kbfK9CC5d3SC9cAqZxsHJ3HIaere0Ne61xQShuuqGsVapvoiLxsHXekzlEXP1bzbGPXCxTXMzK0oNf7GzbuP8rue2x0mb5t/boNet5uBbzW1NwuKfxbfoLxYDDY2B9D+Azq5u0FqjLS3fUbTvTATVl5GXd50ZR42rv23A3MXf47r2HUDd6joJ+j73NLqd3YgV30vw5IThaG840jRCKF1cYHPlMLbuztO2hPwDS7Byf0njNxzNYp5c5mEdNAlj7U/gg5ei8GNBFRu4l5G0choeHzwGkYnlEArOYOfSOZi7ZB/ytUsaVX+j4M+rqLZ1hrO1EAKJFBIqw/XrTUyUN6HAkAlj4Jj0MRZ9kYlSFtGlmV8gYunn+K3UGoohEzDGMQkfL/oCmaWsKCvNxBcRS/H5b6WwtqkfHnYInjQSivgozIlJRjHruuLMtwgN34byfhPwtHdTb1/vFoRre6IQuu00KtTlyNkyH4t3CRA0eQw6mIhw8/UXQCKVgMquQ292EcQiAaov5yHvOhtg6qv4bcNcLP7+OsvdVXUrYm+mPYKmjodD4nt45bMUXFezWNwXgYgthXXJQqh0gYvNFRzeuht5zP9V+QewZOV+lBiC1VT83B5s8OS0p2BzaBle2XgSJepKnP/+LURsvaBPWo1o0Y52UogE1biclwe9qX7DhrmLoTdVS4PHlK1Mj+s7ZivtXYOWdLJ5EtOessGhZa9g48kSqCvP4/u3IrC10RsmPdYImjQW9ic+wEtRP0IvZhJWTnscg8dEwqSYdA17okKx7XQF1OU52DJ/MXYJgjB5TAeITMQSMxAmjbXHiQ9eQtSPBcyCalxOWolpjw/GmMhElJvUow2yCwU4s3Mp5sxdgn36BIe/C/7E1WpbODtb3zafKYNnYlKnRCye9Do+P3QUP219B5Nf24IiMhQ2pnTXtdKItlzTiIb5u22+t3lyGp6yOYRlr2zEyRI1Ks9/j7citqLWLW2yoVAJFxcbXDm8Fbv1wYIDS1Zif12wtAVTecRM/VuIcUlb5maBBFIJoez6dV2RfTvndx23PU7aNv/eul63moNvMbc1g13wJIxUxCNqTgyS9cbAt6Hh2FbeDxOe9mZv0xj6R3HvPPpvS+hCMw8aFzbUUv7VOLKsXVB2NZ4WPWxLIqGELNvJSGLrSxOjFlKQUkmjY4vqHi6mmgxa0ldCIvc5dMjwPHeLVGXQ2nHuJBeKSKaQkcI1mN6e/ShZGhaeaB/ulnecTnvr2qqh1DA/kvuF6bbMlqsRugVl8s4040B9vdV0JSGKgt0tScjak0lFJJB1pmFh8VSka6iGcr+aTj5KC7KQtScruZjE9gE0Z3ue/uH0G4dpnpeULKTtqff8I7oFZfLOM8jYRf3FKgx1MSVGjyRXuQVJFHISC+XkOvJd+kW3VFFNxYnRNNJVThYSBcnFQpK7jqR3dQcbt3OR4sMfJ2e5gMmlIKlIRk6B82jHOd0KK5M2bJabFpTJqeP0vVTbTNUv88lb3p+W/VH78Ph12hgsr7cwSkY2Dz9JgR0lJJaISSh1osEL91KhzpYtLyhrjf43Ds8jL6kFSdv3pvkJN+hq/CJ62FZEQokltZNJyNZ3IkUtDCKlcjTF6h3ZDNfo6PJgcpUJmbxMZru+FDzQiWSGWNQ+kJ+xdhy5y4UkYnaWKVwp+O3Z9Khl7Qp3U/HTHPX1udnOVJNKYX5y8gtL1W+rr9CRxcOps05OFoN2/Wjq2F6kqDdm6r4toSU7qq9S/KKHyVYkJIllO5JJbMl3YhQtDFKScnSsCZlN2MrEuG6zrbQxKe9I043BzMwTRn5yPwpLZfFuhk7qK0do8fDOJBOKSSIWk12/qTS2l6KJBWUMZuuEqGBytxSyeJKxsSUgWedhFBbffG7RoRs7NvTwk4HUkflIwuwudRpMC/cWGq4zFUvarhMoKtidLIVMF5mURAIZdR4WRvEGA7Wsh+6EVstek/sVTfdRkoWFjNpbsZwktqeAOdspTyeSCZ/pFgjJqfOMA8aFT81Qnv45zRzkTkqpmNo5BdCkuePYGO5Nb57Q56wWdW+mn5btZca4apC/E7QNtsH3zEZHFtPwzjISitm4ENtRv6ljqZfi1nJEVcZaGucuJyHL7QoWL67Bb9PsRy3rxawJ3ZrCRB4xqb+JGDc5Nzfpxxt0eJ4XSS2k1L73fDpywdT8frPuLc9LWrVaHlcm58ub4qTl+bcpTNvG9Lcl3HIObkt8m8q/7MqL8eH0uLOcBCyHKFh8y5wCad6Oc7oFgloE2v/pSuF7CU0pzp88ifOVSnj69kKn2tVm9dFcwufjuuM9771IebcfjMtYWqIal3NSkHOtPbr69UCH1v5mgDlytQZ1CfLSMpBfJoVTTx942DbUQlNWgMz0M7gutIeXb3d0kBkOMDSleUg5+Sc0Tj7o62Zt2NsyquIzSM1k77gcusHP276hzVTFOJOaiUK1A7r5ecO+BYOqinOReqoIcOwGH087M21/p7iKz57ognCn7cj9sBdy0i5A6u6LHo71jGUOZumvQWleCk7+qYGTTx+4WQuZH87j5MnzqFR6wrdXp7qFkeZQfSkbKX+UwaFXLxS+44vhx19Axc8LDEfZ8cs5SMm5hvZd/dCjqWA1ET+3i8qiLJzMLYd9z4fgrjRxK7xZOzLbnT+Jk+crofT0Ra9WDp6WbWXGuL4jtjJHp0oUZZ1Ebrk9ej7kDlPmU5fkIS0jH2VSJ/T08YBJMa9+hie6hMNpey4+7JWDtAtSuPv2QOPwNxlLUKMkLw0Z+WWQOvWEj4dto3FtWo9Wy64pQ0FmOs5cF8Leyxfd6yc4LbfoM01RBpIuWMPnwS51C3GrDs1Bt5EZeCXnEObVPXhoSvemaMs1RprK3622n5bKImSdzEW5fU885K68+aPYttiw+jJyUnJwrX1X+PXogNZOk81hKo80q785Md6WuZldk5dyEn9qnODTxw3WuM3zu47bHyetnn9vU91yqzm4TfFtCjbf5KaeQhEc0c3HE3b12rw3i1sTaD/OuJESiRHD92Jkws9Y1OO/+ZE457+Lsbg9u/5JtLKkvUeoxi//7n1TcctpCm6rBtRN/Gex/sl/ZvTfKVQpb8O//1fovfEg1oV4QHo1GR9NGYU3Cl/Ez8nvoE+Lz+Nz7hl4jN9j/DNysIn7CPcgqmSE9bGCbcB7qHwxGrN5Yfs/jgACoQWEgvoLBP55aHWwEP6TNbh7cFvVg8W90ELI/uH2aIzIdw6WveaCw897QaloB0vHR/DO+cFYsf51Xtj+k+Axfs/xT8jB/8A7t2qUnD+Fc5WO6NH4o3UOh8PhcOqhupaHU38UocbKFd27dWjVo0McDuefyT/ysQQOh8PhcDgcDqcp/nmPJXA4HA6Hw+FwOM3Ai1sOh8PhcDgczn0DL245HA6Hw+FwOPcN//hnbqvy03HWsie62/1v1Onq87uxfNUhFDX1Q0cQwX3MG5g72BYliasRebgD3gt72nDsLqM+h13vrkFe/4V4ZYidYWdzlCBxdSQOd3gRYU97GfZxtL8QlH7WEj27291X70Lrj9mKY+sQvq893lsSYjjKMYcG47viGNaF70P7aeEI6dn6rwG47T5oddyWIWvHh/jgq5+QfUUNpfsjeHrOa5jkf5t+SprD4fzP8Y/OHepzn2KM/xRszm+y0rsvUV/4GV9+shE/ZF/G1atXb3r9fUP7o3galKXuwOrYw/qL/huoC5HwxWpsO3HdsKMFNGVI3bEasYf/MuzgaN8cfDrGH1M25+u+1/l+ofGYrc7/Fft/OKn7m2MujcZ3dT5+3f8DThbpfxCztdxWH7Q6btU4/ekzGPTch/hd0Rcj/xUIx/wvMGPo4wj7pY2/zcnhcP7n+UcXt1R2CZfL/ncK2zoED+Cx0I3YtGlTo1cs3nrC3nAS5x8NleHS5bL7qrDV0njMKp/dgIzj7xq2OG1C+Sw2ZBzHu0Pb9ltSt9UHrY3b6iSs+zAekpD1+CEuCqELIhBzYD/e6pGJ1au+R6nhNA6Hw2kNd624LfnuZQx8LhobwkfCy0YKqdINA1+IwYkSwwksHRYdWY6QgC6wkoggs++GEa9+jaxKw+Hi7Zg9MASL3n4K3W0tYdNrJEZN+gzZVbmInTQAUzfmsZNMtFHyHV4eOAkrvlqG8Q86QiGWwtY7CAt356P2noem6AiWhwSgi5UEIpk9uo14FV/XNcBQ5WPfkmcR4KKEVCyHfc9/4a09tdeb6N9sqpH87ig8HLQEv1Qbdt1ODHZYFhuBMT0fgExiic79ZzE9MxA3ayBc2ksgsfHCyKUJuGaYparP7UbYWD90aieGSO6A7kGvYvOpCv1BLRUZ2DT3MXjZyiCx9sCwRQdxqf4DL5oiHFkegoAuVpCIZLDvNgKvfp2Fpk1TjXO7wzDWrxPaiUWQO3RH0KubUb+7Buj0eQ7RG8Ix0ssGUqkSbgNfQExtcDWKHVu/13GYtdWiTqba1FzClpkDMOrdZCatAVUaPhg3ANO//FO/bUrnkuP4ZOoAdLW3hERiDWf/8YiMvwiNphBxM6fgs+wq5MZOwoCpG5HHAsykDxpRkfEl5gz1gq1Mgnad++OF1Ssw89Hx+ChDpTuuufQT3p86CN4OlhBbsHi188LQl+KQVaU9WoztswciZNHbeKq7LSxt/fA6M1rL15Tgu5cHYtKKr7Bs/INwVIghtfVG0MLdyGfyawrjMHNKwzGrzQuPDI/QSoOCTS+gn78//Bu9+hn0b7nvmyk5/gmmDugKe0sWz9bO8B8fifiL2oDW4NKWmRgw6l0kG52HtA/GYcD0Lw3bN6PK34clzwbARSmFWG6Pnv96C3t0ipmKBYNdlsUiYkxPPMD8Ycn8MYvFQkbcLAx0ac/8bwOvkUuRYBhwpvNlPbSx+shwRCRoe29bX3ofaLmFHNqWuLVwxfgl67B2wROw1e8BJK7wdpOjurzcaE8Oh8NpDdpnbu8GV2KCSCqR0QMPTqdPDx6lnzYvoiGOYnL+v510lR2vSV9OgUob6jNjDe1LSqGj3y6l0W4K8py5j66x4+qLa2iYREgK3xm0KTGRtn0ZS1+8M5ZcxV1odHgM7Uy9ZrINJgQFyWTUzu0xWrTpCCUn7abIoE4k7jiNdpXqhKDlgUqy6TOD1uxLopSj39LS0W6k8JxJ+3QNVFHKkgBqZ+1HL6w9SMknDlHM873JUjmCVp9Vme7fbGro1Kb5NH3eRjpZY9hloOrYAuomcaM5hyoNe5pCTX99NITkrrMN243Q2kEqJrnLCIrYcZRSEtbQeBcxWdk5U98X11H8r0m04/VHSCnrT8uyVUTliRTaW0HWzHcf7z1KSfEb6dUB9iRxfZ52XlKzBsvo0CteJH3gUfr3l0fo2JE4Ch3sSCKBmAYsz2XHayh9eSApbfrQjDX7KCnlKH27dDS5KTxpptaw6r/ooyFycp39o0688sRQ6q2wpgenf0x7jyZR/MZXaYC9hFyf30m67hqj00dCsgcepOmfHqSjP22mRUMcSez8f7STBddNsbM1gS6VmtDJRJv1Za7zRNXP9JqX3Dyd2fFf32Cx020qxRxKoYzfD9D7Y51J0vkF2ldWSmk7I2msq5i6jA6nmJ2pdM2kDxpRGk8ve0npgUf/TV8cTqKELWEU1EVCQlF3ej2pip1whbaGOJKs6wT66EAypacn0e73tONJSWM36YxGa4ax8xW+NGNTIiVu20oJly61fA1rMyZIRrJ2bvTYok10JJkdjwyiTuKONE07wErTaGdkwzGrzQsyh6k6kf9O200bYmIoxvD6NGwUOYstyS/0J/rblLyNqfmV3uhtSd2mxtChlAz6/cD7NNZZQp1f2Mei1Tg+fjQ6j35+zYvkA5YbthtRlUJLAtqRtd8LtPZgMp04FEPPs/aVI1bT2WpTsaC1i5TEchcaEbGDjqYk0JrxLiS2siPnvi/SuvhfKWnH6/SIUkb9l2XrLm85XzYa37q85kBTd93QbrSpr1of3FoOvQ1xy3S7eGAe+bV/gEZtOM+2OBwOp/Xc3eJW+jBFZbJiSYeaCtcHk9LqX7ShqILiZ7mQrF80aWupWq7EPUW2VqMo9pKhQJHKaNjqgrqEV5MWQX3kPvTW79oKsNJkG7rEzAqWwJXn6tqoOjKXPGR9KfKUiirjZ5GLrB9FN2yAnrK1olHaBqqO0FwPKfm8eYJNhQbKfqTIidPpk+MlpvtvBeVnfqG9R7LoeqPsrituRUISyxSkUDR62TxFm7RFOtPOdHEr0U28elEr6eBMZxK7zKSD2vmRoS78hB6TdaTpe25Q6bbnyE7en6KzjIqpCzfSKKWChn7MJqDSHTTJXk6B79e2x44XrKMnrPR9MMPSLBcZ9YvOrjvOhKC4p2zJalQsK1jrF7eltO05O5L3jyZjdyxWNo4ipWIofXy+ielOp4+UHo7KNPZfuJ6ClVb0rw1FVNNE7JjUyUSbalPFrSmd6QbtCLGl9gMj6XeDk1V5P9C61bsoQ/dGK40i+sjJ563fWRlshryGfbVc+3o82bYfTqvr2evqlufIQWwobtVFdHzzKor96ZLx2qoEmtdVRn0jT5FKV9xKSTZsNRXUnmDqGkNhJQlcSedqT9CNGf1xLQ3HrNZ1xsKqPupLB2ierxV1HreRcrWnmuy7ETd2UIhtexoY+bthDKko74d1tHpXBouw1he3ujwh9aE3T9SNfDb0I2ni9E/oeIV5xa2EtZ1rELTy4ExWuLvQTOOAo08ek1HH6Xt0my3nyxqTxW1r+9L74NZz6K3FrZou7HmZfK2s6aF5e+lCw4McDodjNnf1mVsLt0AM9rQwbAnh0C8AntXZyMjKR2r6Baiy12Kcby/06qV/DYpIRMWN08jMNXw4JbCBi0szK2jVhWa2oYS7p2NdG0KlEu0FKlRXq1CYmo4LqmysHedbd32vQRFIrLiB05m5qCzOxKkCazwU0NP4s7+WQ/Fm3Hq81Oeqef2bhQpnNr2Mp1/9GnlNPbwm7IhxH/4HP/74Y8PXgaUYYe5vSwqs4OHlBL03BFC0k0PU0QVdxLodECoUkAvUUKlVOJuejfIu/THQvdZ37LhDIAb0UCMn7RRu5GUgq9QJfv5dDO1pjz+Cfl31K7fVhalIv6BC9tpx8K21a69BiEiswI3TmWhgGtVZpGeXo0v/gTB2x2IlcAB6qHOQdqrGsK8RFm4IHOxZr/9+CPCsRnbGaWZNRoPYMa2TrhdTbbaAaZ1lGDJlMpx/exv+nTrDd/hkLPyuFAHjR6JnO0MjdZgpbx0q/JGWhQqXvgjoZBwtyv790NPgX3YxAp6dDP+SHYgOnY0p44bBv8dorM5VQ6PRQP9EiQA2Li6wrRss5l2jdPeEo3GAQdleAFV1K+K/4iQ+DJmCz6Wv4OuN/wcPbRiZ1Xc9ZEMwZbIzfnvbH506+2L45IX4rjQA40f2xE3mNYkGxZmnUGD9EAJ6Gn/w23Lom4hb/xICzHrUVQArDy84GdwnULSDXNQRLsYBB4VcALVKrd9mNJsvT5uKvtb3peOWc2hjL7Qybou/w4IZG6CZugX733/SGEMcDofTSu5q+hDI5JDX79FCxAoHYpNTFapY3rTqE4IFoaEIrX2FrUBMbDSe0c1uDIEFu0Sg//smWtGGMc/qqG2xSt8AQhbUuz40DCtiYhH9jAdENSqowWQWNyWDmf2bQ2kyvt6dDduH2GTW5GUS2Hv1Rb9+/Rq+Arxhb65HBWKIawudWgSCukKuPtWswIVIzDSvB7OjiO3QaNQgNkmqWShpt+sQyCCTGuxUVYVqWKFPyIJ6dg1F2IoYxEY/oy9e6qhmk662u4aKC1isiFiRoVHfVMboYf3JGwYXREwZYoWPjkaxY1In3baJNhkNpWHy1X6znhk624z4EMdS9mPt/GC4lR3D+tefRoDfeGw826joYJglb2OIydPUmyMtmkJse94f/s+8gx2pxZC6B2La4nCMd66vL4sHZvc6q5l9TTMDzBw0f2Lb7KcRdmYY1mwNx6PWtfvN6bs+Nhjx4TGk7F+L+cFuKDu2Hq8/HQC/8RtRZ95GRtNoqGk7Mmq0hSBzfpND30CzsaBDwMbbTQNO68JmaT5fGrabpfV96bn1HNqY1sRt1a//weHrj2L2m8Ph0JxbORwOxwzuagpR52cju8ywwSjLyMBZC3d4d+sCN2cFyius0T9kMiZP1r8mjvCDh7cPPOtuHTWCFWN1WHRsWxt1WKCjmzMU5RWw7h9Sd/3kiSPg5+ENH09biOxc4WxVjNyci2zqMqDKwvpZExG+X3CL/Ru4fhRRo8fgw7+fxvthQbA07P7vIYILs4vorwxk1K4u01KRhvQ/gM6ubpC7dIWb9AJOZRYb7VKVg9Pn2cTGsOjoBmdFOSqs+yOk1q6TJ2KEnwe8fTyNdwa1iFyYHUX4i8VGw+7S8Qc6w9Wt8aRtQJ2P7IbBhYyzFnD37tpwYtVhWiddLy22qZ3gCdVVN4wTdPVFXLyib8+kzriK5G9WYfvFhzB9cQx2HstFQdpKDCrbh7i9F1kLrBjRtaTFTHnrEKFr7+6Qnz+BZN0CKj1/Jycjy3CrTPPXNqzZcgVDVyXjxH++wWcrwjAnuANq/mbnN1M9teWam6g/Zm+iBD9HjMeM3R2x6JsYPOdirKBa27fmajK+WbUdFx+ajsUxO3EstwBpKwehbF8c9jKbaAtwqq7CDaPzcPHiFWP8NkAIO1dnWBXnIqeePVVZ6zFrYjj2XNAW9M3HQltpNl8aPhG57dxyDtXS9ri16DIMs96YjoH/I99ZzuFw7hx3NYvQtT2ICt2G0xVqlOdswfzFuyAImowxHWwQNGks7E98gJeifkRBFUvsl5OwctrjGDwmEonNfN2hQCKFhMpw/bq2iLJuUxv1sQ6ahLH2J/DBS1H4Ud8AklZOw+ODxyBS24BiCCaMcUTSx4vwRWYpm1NLkflFBJZ+/htKrV1M96/Kwf6Yddh+oljfYWPUefj8+aextPBJbPzPZ3jWublbLTUo+SsbmZmZjV6nkPVnU8upbw274EkYqYhH1JwYJBczW1ecwbeh4dhW3g8TnvaGhc2TmPaUDQ4tewUbT5ZAXXke378Vga0XDBOadRAmjbXHiQ9eQtSPBaiCGpeTVmLa44MxJjIRDV1jh+BJI6GIj8KcmGTou/sWoeHbUN5vAp72bsYmdA17okKx7XQF1OU52DJ/MXYJgjB5TIcmg9ykTtqTWmpTqISLiw2uHN6K3XnM2VX5OLBkJfaXGMobUzoLBTizcynmzF2Cffnseqjwd8GfuFptC2dna21wQyohlF2/rnsEwix566EMnolJnRKxeNLr+PzQUfy09R1Mfm0LishQfGjvpgmqcTkvD9eZm9RXf8OGuYvx/XXtTee673NoSFuuaUTDMVsfFXI+m4oJywswOHwJRlvmGeM6Kx/Xha3rWyg4g51L52Dukn3Qm/dvFPx5FdW2znC2FkHp4gKbK4exdXee9n4l8g8swcr9JY3uvhpRDJmAMY5J+HjRF8gs1UBTmokvIpbi899KYW1n23IstJHm8+WdStu3nkNvJW5VAgXs7cWoMacfDofDaQnDs7d3HN2iBZuH6cnAjiQRS0gslJLT4IW0t9CwakB9hRKigsndUkhCiYykIgHJOg+jsPgi3aID3YIyeWeacaBuyQbRjcM0z0tKFtL21Ht+gsk2dIsh5B1p+l7DwgpGTWoY+cn9KCxVt2qFriREUbC7JQmFEpJJRSSQdaZhYfFUVCtmcSJFj3QluYWEFHIxCeWuNPLdX/QriU31X/o5jZKKqU9EmnbrJlRZUfSwzJle3F9m2KOlnApy/qCicr0A+gVlujm4iZeALMd9xc4yY0FZAztU0S/zvUnefxn9Ubvu4/pGCpbXLlJR08X4cHrcWU4CCxkpmF1kToE0b8c53aIRLeorR2jx8M4kE4qZf8Vk128qje2lMCyo0R5PoKhgd7IUCkkik5JIIKPOw8IoXmvYRt+WoF2pHx/+ODnLBWQhUzA7ysgpcB7tOFfbWyN0C2ps6OEnA6mjRNu/kKROg2nh3kKd3ZuMHVM6mWhTS1XGWhrnLichk0/B5HQNfptmP2ppns6MmtyvaLqPkixY/+2t5CQW21PAnO2Up/PBDTo8z4ukFlJq33s+JVSZ9kFjytM/p5mD3EnJYq6dUwBNmjuOvKS96c0T7Ar1VYpf9DDZiphslu1IJrEl34lRtDBIScrRsVRUo11QJqfOMw4YF0mZuobFf0yQnDpO38ukN1CTSmF+cvILS9VvNxqzdYuZdIucWFXUVFxLg2ljsam+9c0bqaHcr6aTj9KCxVB7smJjVWwfQHO25+kXn1Vl0Npx7iQXMjsqmD1dg+nt2Y+SZXPflsC8XpwYTSNd5WQhUZCcxYPcdSS9+4v+e1BajoWb7VL1y3zylvenZcYBRxuD5eQwdZduq+V8aerbEtrQV+2ivlvOoW2P20trR5BUXF9ODofDaRt37ed3r372BLqEO2F77ofolZOGC1J3+PZwhMxwvBZ1SR7SMvJRJnVCTx8P2BrXbzSJpjQPKSf/hMbJB33d9A/otbaNm1CXIC8tA/llUjj19IHHTQ2oUHwmFZmFajh084O3fcPjbe2/+teF8Av8Fo8fzMAHAw0Xle3CtK7PIGPWbzgR1ku/77+Fqhi5qadQBEd08/GE3U16VaIo6yRyy+3R8yF3KG+6waRGSV4aMvLLIHXqCR8PW+PCvCZQFeci9VQR4NgNPp52zZ979TM80SUcTttz8WGvHKRdkMLdtwccGwdXUzSnk7ltVl9GTkoOrrXvCr8eHXDz2iITOmvKUJCZjjPXhbD38kX3DvU60JQiL+Uk/tQ4waePG6y19jTpAz2aogwkXbCGz4Nd6hZQVR2ag24jM/BKziHM0z2rqkHp+ZM4eb4SSk9f9OpkzmrEtlzTkKbGrHm0vm9NWQEy08/gutAeXr7dUd+82kcRLuekIOdae3T164EO5iwMY/Y/k5qJQrUDuvl5o8HQNxkL5mNuvrxT3FIOvYW45XA4nNvB3S9uz67Hk3crQ//TqPgJ8/weR5zj64j78k08bl+A3QufxeQNIixM+hlv9r5Dz9r906krRM9i/e0KrjvR5l1ElfI2/Pt/hd4bD2JdiAekV5Px0ZRReKPwRfyc/A768FC6p+H5ksPhcNrOnXp46yYEAiEshIKW15P8r6MYhCVx72HopY8R7G4FmbIrxm+qwVOfbMB8Xtg2DwsqoYWQ/XMbg+tOtHkXEfnOwbLXXHD4eS8oFe1g6fgI3jk/GCvWv84L238APF9yOBxO27lrd245rUBTjgs5Wfizoh2cu3eDY+s/+eVwdKiu5eHUH0WosXJF924dwEOJw+FwOPc3wP8HE2HPIE/JaoIAAAAASUVORK5CYII=;" vertex="1" parent="1">
          <mxGeometry x="560" y="10" width="695" height="247" as="geometry" />
        </mxCell>
        <mxCell id="nGa4pKBGpaBBOfSN9Iji-2" value="EMPLEADO" style="whiteSpace=wrap;html=1;align=center;" vertex="1" parent="1">
          <mxGeometry x="560" y="420" width="100" height="40" as="geometry" />
        </mxCell>
        <mxCell id="nGa4pKBGpaBBOfSN9Iji-3" value="trabaja" style="shape=rhombus;double=1;perimeter=rhombusPerimeter;whiteSpace=wrap;html=1;align=center;" vertex="1" parent="1">
          <mxGeometry x="790" y="410" width="120" height="60" as="geometry" />
        </mxCell>
        <mxCell id="nGa4pKBGpaBBOfSN9Iji-4" value="DEPARTAMENTO" style="whiteSpace=wrap;html=1;align=center;" vertex="1" parent="1">
          <mxGeometry x="1010" y="420" width="100" height="40" as="geometry" />
        </mxCell>
        <mxCell id="nGa4pKBGpaBBOfSN9Iji-5" value="Legajo" style="ellipse;whiteSpace=wrap;html=1;align=center;fontStyle=4;" vertex="1" parent="1">
          <mxGeometry x="440" y="310" width="100" height="40" as="geometry" />
        </mxCell>
        <mxCell id="nGa4pKBGpaBBOfSN9Iji-6" value="Nombre" style="ellipse;whiteSpace=wrap;html=1;align=center;" vertex="1" parent="1">
          <mxGeometry x="550" y="280" width="100" height="40" as="geometry" />
        </mxCell>
        <mxCell id="nGa4pKBGpaBBOfSN9Iji-7" value="Apellido" style="ellipse;whiteSpace=wrap;html=1;align=center;" vertex="1" parent="1">
          <mxGeometry x="640" y="320" width="100" height="40" as="geometry" />
        </mxCell>
        <mxCell id="nGa4pKBGpaBBOfSN9Iji-8" value="Fecha_nac" style="ellipse;whiteSpace=wrap;html=1;align=center;" vertex="1" parent="1">
          <mxGeometry x="390" y="360" width="100" height="40" as="geometry" />
        </mxCell>
        <mxCell id="nGa4pKBGpaBBOfSN9Iji-9" value="Domicilio" style="ellipse;whiteSpace=wrap;html=1;align=center;" vertex="1" parent="1">
          <mxGeometry x="364" y="410" width="100" height="40" as="geometry" />
        </mxCell>
        <mxCell id="nGa4pKBGpaBBOfSN9Iji-10" value="Tel_fijo" style="ellipse;whiteSpace=wrap;html=1;align=center;" vertex="1" parent="1">
          <mxGeometry x="364" y="460" width="100" height="40" as="geometry" />
        </mxCell>
        <mxCell id="nGa4pKBGpaBBOfSN9Iji-12" value="Celular" style="ellipse;whiteSpace=wrap;html=1;align=center;" vertex="1" parent="1">
          <mxGeometry x="420" y="500" width="100" height="40" as="geometry" />
        </mxCell>
        <mxCell id="nGa4pKBGpaBBOfSN9Iji-13" value="Fecha_ingreso" style="ellipse;whiteSpace=wrap;html=1;align=center;" vertex="1" parent="1">
          <mxGeometry x="750" y="350" width="100" height="40" as="geometry" />
        </mxCell>
        <mxCell id="nGa4pKBGpaBBOfSN9Iji-14" value="depende de" style="shape=rhombus;perimeter=rhombusPerimeter;whiteSpace=wrap;html=1;align=center;" vertex="1" parent="1">
          <mxGeometry x="560" y="505" width="90" height="35" as="geometry" />
        </mxCell>
        <mxCell id="nGa4pKBGpaBBOfSN9Iji-15" value="" style="endArrow=none;html=1;rounded=0;exitX=0;exitY=1;exitDx=0;exitDy=0;entryX=0.75;entryY=0;entryDx=0;entryDy=0;" edge="1" parent="1" source="nGa4pKBGpaBBOfSN9Iji-7" target="nGa4pKBGpaBBOfSN9Iji-2">
          <mxGeometry relative="1" as="geometry">
            <mxPoint x="690" y="420" as="sourcePoint" />
            <mxPoint x="850" y="420" as="targetPoint" />
          </mxGeometry>
        </mxCell>
        <mxCell id="nGa4pKBGpaBBOfSN9Iji-16" value="" style="endArrow=none;html=1;rounded=0;exitX=0.5;exitY=1;exitDx=0;exitDy=0;entryX=0.5;entryY=0;entryDx=0;entryDy=0;" edge="1" parent="1" source="nGa4pKBGpaBBOfSN9Iji-6" target="nGa4pKBGpaBBOfSN9Iji-2">
          <mxGeometry relative="1" as="geometry">
            <mxPoint x="690" y="420" as="sourcePoint" />
            <mxPoint x="850" y="420" as="targetPoint" />
          </mxGeometry>
        </mxCell>
        <mxCell id="nGa4pKBGpaBBOfSN9Iji-17" value="" style="endArrow=none;html=1;rounded=0;exitX=1;exitY=1;exitDx=0;exitDy=0;entryX=0.25;entryY=0;entryDx=0;entryDy=0;" edge="1" parent="1" source="nGa4pKBGpaBBOfSN9Iji-5" target="nGa4pKBGpaBBOfSN9Iji-2">
          <mxGeometry relative="1" as="geometry">
            <mxPoint x="690" y="420" as="sourcePoint" />
            <mxPoint x="850" y="420" as="targetPoint" />
          </mxGeometry>
        </mxCell>
        <mxCell id="nGa4pKBGpaBBOfSN9Iji-18" value="" style="endArrow=none;html=1;rounded=0;exitX=1;exitY=0.5;exitDx=0;exitDy=0;entryX=0;entryY=0;entryDx=0;entryDy=0;" edge="1" parent="1" source="nGa4pKBGpaBBOfSN9Iji-8" target="nGa4pKBGpaBBOfSN9Iji-2">
          <mxGeometry relative="1" as="geometry">
            <mxPoint x="690" y="420" as="sourcePoint" />
            <mxPoint x="850" y="420" as="targetPoint" />
          </mxGeometry>
        </mxCell>
        <mxCell id="nGa4pKBGpaBBOfSN9Iji-19" value="" style="endArrow=none;html=1;rounded=0;exitX=1;exitY=0.5;exitDx=0;exitDy=0;entryX=0;entryY=0.25;entryDx=0;entryDy=0;" edge="1" parent="1" source="nGa4pKBGpaBBOfSN9Iji-9" target="nGa4pKBGpaBBOfSN9Iji-2">
          <mxGeometry relative="1" as="geometry">
            <mxPoint x="690" y="420" as="sourcePoint" />
            <mxPoint x="850" y="420" as="targetPoint" />
          </mxGeometry>
        </mxCell>
        <mxCell id="nGa4pKBGpaBBOfSN9Iji-20" value="" style="endArrow=none;html=1;rounded=0;exitX=1;exitY=0.5;exitDx=0;exitDy=0;entryX=0;entryY=0.5;entryDx=0;entryDy=0;" edge="1" parent="1" source="nGa4pKBGpaBBOfSN9Iji-10" target="nGa4pKBGpaBBOfSN9Iji-2">
          <mxGeometry relative="1" as="geometry">
            <mxPoint x="690" y="420" as="sourcePoint" />
            <mxPoint x="850" y="420" as="targetPoint" />
          </mxGeometry>
        </mxCell>
        <mxCell id="nGa4pKBGpaBBOfSN9Iji-21" value="" style="endArrow=none;html=1;rounded=0;exitX=1;exitY=0;exitDx=0;exitDy=0;entryX=0;entryY=1;entryDx=0;entryDy=0;" edge="1" parent="1" source="nGa4pKBGpaBBOfSN9Iji-12" target="nGa4pKBGpaBBOfSN9Iji-2">
          <mxGeometry relative="1" as="geometry">
            <mxPoint x="690" y="420" as="sourcePoint" />
            <mxPoint x="850" y="420" as="targetPoint" />
          </mxGeometry>
        </mxCell>
        <mxCell id="nGa4pKBGpaBBOfSN9Iji-22" value="" style="endArrow=none;html=1;rounded=0;exitX=1;exitY=0;exitDx=0;exitDy=0;entryX=0;entryY=0.5;entryDx=0;entryDy=0;" edge="1" parent="1" source="nGa4pKBGpaBBOfSN9Iji-2" target="nGa4pKBGpaBBOfSN9Iji-13">
          <mxGeometry relative="1" as="geometry">
            <mxPoint x="690" y="420" as="sourcePoint" />
            <mxPoint x="850" y="420" as="targetPoint" />
          </mxGeometry>
        </mxCell>
        <mxCell id="nGa4pKBGpaBBOfSN9Iji-23" value="" style="endArrow=none;html=1;rounded=0;entryX=0;entryY=0.5;entryDx=0;entryDy=0;exitX=1;exitY=0.5;exitDx=0;exitDy=0;" edge="1" parent="1" source="nGa4pKBGpaBBOfSN9Iji-3" target="nGa4pKBGpaBBOfSN9Iji-4">
          <mxGeometry relative="1" as="geometry">
            <mxPoint x="790" y="320" as="sourcePoint" />
            <mxPoint x="950" y="320" as="targetPoint" />
          </mxGeometry>
        </mxCell>
        <mxCell id="nGa4pKBGpaBBOfSN9Iji-24" value="(1,1)" style="resizable=0;html=1;whiteSpace=wrap;align=right;verticalAlign=bottom;" connectable="0" vertex="1" parent="nGa4pKBGpaBBOfSN9Iji-23">
          <mxGeometry x="1" relative="1" as="geometry" />
        </mxCell>
        <mxCell id="nGa4pKBGpaBBOfSN9Iji-25" value="" style="endArrow=none;html=1;rounded=0;entryX=1;entryY=0.5;entryDx=0;entryDy=0;" edge="1" parent="1" source="nGa4pKBGpaBBOfSN9Iji-3" target="nGa4pKBGpaBBOfSN9Iji-2">
          <mxGeometry relative="1" as="geometry">
            <mxPoint x="790" y="320" as="sourcePoint" />
            <mxPoint x="950" y="320" as="targetPoint" />
          </mxGeometry>
        </mxCell>
        <mxCell id="nGa4pKBGpaBBOfSN9Iji-26" value="(1,M)" style="resizable=0;html=1;whiteSpace=wrap;align=right;verticalAlign=bottom;" connectable="0" vertex="1" parent="nGa4pKBGpaBBOfSN9Iji-25">
          <mxGeometry x="1" relative="1" as="geometry">
            <mxPoint x="40" as="offset" />
          </mxGeometry>
        </mxCell>
        <mxCell id="nGa4pKBGpaBBOfSN9Iji-27" value="Codigo_dep" style="ellipse;whiteSpace=wrap;html=1;align=center;fontStyle=4;" vertex="1" parent="1">
          <mxGeometry x="1030" y="340" width="100" height="40" as="geometry" />
        </mxCell>
        <mxCell id="nGa4pKBGpaBBOfSN9Iji-28" value="Nombre" style="ellipse;whiteSpace=wrap;html=1;align=center;" vertex="1" parent="1">
          <mxGeometry x="1150" y="380" width="100" height="40" as="geometry" />
        </mxCell>
        <mxCell id="nGa4pKBGpaBBOfSN9Iji-29" value="Ubicacion" style="ellipse;whiteSpace=wrap;html=1;align=center;" vertex="1" parent="1">
          <mxGeometry x="1141" y="450" width="100" height="40" as="geometry" />
        </mxCell>
        <mxCell id="nGa4pKBGpaBBOfSN9Iji-30" value="" style="endArrow=none;html=1;rounded=0;exitX=0.5;exitY=1;exitDx=0;exitDy=0;entryX=0.5;entryY=0;entryDx=0;entryDy=0;" edge="1" parent="1" source="nGa4pKBGpaBBOfSN9Iji-27" target="nGa4pKBGpaBBOfSN9Iji-4">
          <mxGeometry relative="1" as="geometry">
            <mxPoint x="790" y="420" as="sourcePoint" />
            <mxPoint x="950" y="420" as="targetPoint" />
          </mxGeometry>
        </mxCell>
        <mxCell id="nGa4pKBGpaBBOfSN9Iji-31" value="" style="endArrow=none;html=1;rounded=0;entryX=0;entryY=0.5;entryDx=0;entryDy=0;exitX=1;exitY=0;exitDx=0;exitDy=0;" edge="1" parent="1" source="nGa4pKBGpaBBOfSN9Iji-4" target="nGa4pKBGpaBBOfSN9Iji-28">
          <mxGeometry relative="1" as="geometry">
            <mxPoint x="790" y="420" as="sourcePoint" />
            <mxPoint x="950" y="420" as="targetPoint" />
          </mxGeometry>
        </mxCell>
        <mxCell id="nGa4pKBGpaBBOfSN9Iji-32" value="" style="endArrow=none;html=1;rounded=0;entryX=0;entryY=0.5;entryDx=0;entryDy=0;exitX=1;exitY=1;exitDx=0;exitDy=0;" edge="1" parent="1" source="nGa4pKBGpaBBOfSN9Iji-4" target="nGa4pKBGpaBBOfSN9Iji-29">
          <mxGeometry relative="1" as="geometry">
            <mxPoint x="790" y="420" as="sourcePoint" />
            <mxPoint x="950" y="420" as="targetPoint" />
          </mxGeometry>
        </mxCell>
        <mxCell id="nGa4pKBGpaBBOfSN9Iji-36" value="" style="endArrow=none;html=1;rounded=0;entryX=0.5;entryY=1;entryDx=0;entryDy=0;exitX=1;exitY=0.5;exitDx=0;exitDy=0;" edge="1" parent="1" source="nGa4pKBGpaBBOfSN9Iji-14" target="nGa4pKBGpaBBOfSN9Iji-2">
          <mxGeometry relative="1" as="geometry">
            <mxPoint x="690" y="520" as="sourcePoint" />
            <mxPoint x="850" y="520" as="targetPoint" />
          </mxGeometry>
        </mxCell>
        <mxCell id="nGa4pKBGpaBBOfSN9Iji-37" value="(1,0)" style="resizable=0;html=1;whiteSpace=wrap;align=right;verticalAlign=bottom;" connectable="0" vertex="1" parent="nGa4pKBGpaBBOfSN9Iji-36">
          <mxGeometry x="1" relative="1" as="geometry">
            <mxPoint x="40" y="30" as="offset" />
          </mxGeometry>
        </mxCell>
        <mxCell id="nGa4pKBGpaBBOfSN9Iji-38" value="" style="endArrow=none;html=1;rounded=0;exitX=0;exitY=0.5;exitDx=0;exitDy=0;entryX=0.25;entryY=1;entryDx=0;entryDy=0;" edge="1" parent="1" source="nGa4pKBGpaBBOfSN9Iji-14" target="nGa4pKBGpaBBOfSN9Iji-2">
          <mxGeometry relative="1" as="geometry">
            <mxPoint x="690" y="520" as="sourcePoint" />
            <mxPoint x="850" y="520" as="targetPoint" />
          </mxGeometry>
        </mxCell>
        <mxCell id="nGa4pKBGpaBBOfSN9Iji-39" value="(0,M)" style="edgeLabel;html=1;align=center;verticalAlign=middle;resizable=0;points=[];" vertex="1" connectable="0" parent="nGa4pKBGpaBBOfSN9Iji-38">
          <mxGeometry x="0.4001" y="-2" relative="1" as="geometry">
            <mxPoint x="11" y="-9" as="offset" />
          </mxGeometry>
        </mxCell>
        <mxCell id="nGa4pKBGpaBBOfSN9Iji-40" value="Gerencia" style="shape=rhombus;perimeter=rhombusPerimeter;whiteSpace=wrap;html=1;align=center;" vertex="1" parent="1">
          <mxGeometry x="780" y="555" width="120" height="60" as="geometry" />
        </mxCell>
        <mxCell id="nGa4pKBGpaBBOfSN9Iji-41" value="" style="endArrow=none;html=1;rounded=0;entryX=0.5;entryY=1;entryDx=0;entryDy=0;exitX=1;exitY=0.5;exitDx=0;exitDy=0;" edge="1" parent="1" source="nGa4pKBGpaBBOfSN9Iji-40" target="nGa4pKBGpaBBOfSN9Iji-4">
          <mxGeometry relative="1" as="geometry">
            <mxPoint x="750" y="520" as="sourcePoint" />
            <mxPoint x="910" y="520" as="targetPoint" />
          </mxGeometry>
        </mxCell>
        <mxCell id="nGa4pKBGpaBBOfSN9Iji-42" value="(1,1)" style="resizable=0;html=1;whiteSpace=wrap;align=right;verticalAlign=bottom;" connectable="0" vertex="1" parent="nGa4pKBGpaBBOfSN9Iji-41">
          <mxGeometry x="1" relative="1" as="geometry">
            <mxPoint x="10" y="30" as="offset" />
          </mxGeometry>
        </mxCell>
        <mxCell id="nGa4pKBGpaBBOfSN9Iji-43" value="" style="endArrow=none;html=1;rounded=0;exitX=1;exitY=1;exitDx=0;exitDy=0;entryX=0;entryY=0.5;entryDx=0;entryDy=0;" edge="1" parent="1" source="nGa4pKBGpaBBOfSN9Iji-2" target="nGa4pKBGpaBBOfSN9Iji-40">
          <mxGeometry relative="1" as="geometry">
            <mxPoint x="750" y="520" as="sourcePoint" />
            <mxPoint x="910" y="520" as="targetPoint" />
          </mxGeometry>
        </mxCell>
        <mxCell id="nGa4pKBGpaBBOfSN9Iji-44" value="(0,M)" style="edgeLabel;html=1;align=center;verticalAlign=middle;resizable=0;points=[];" vertex="1" connectable="0" parent="nGa4pKBGpaBBOfSN9Iji-43">
          <mxGeometry x="-0.7383" y="2" relative="1" as="geometry">
            <mxPoint x="13" y="-5" as="offset" />
          </mxGeometry>
        </mxCell>
      </root>
    </mxGraphModel>
  </diagram>
</mxfile>
